<?xml version="1.0" encoding="UTF-8"?>
<svg width="80px" height="102px" viewBox="0 0 80 102" version="1.1" xmlns="http://www.w3.org/2000/svg" xmlns:xlink="http://www.w3.org/1999/xlink">
    <title>signs-light/aquarius</title>
    <defs>
        <linearGradient x1="0%" y1="50%" x2="100%" y2="50%" id="linearGradient-1">
            <stop stop-color="#BE9FF9" offset="0%"></stop>
            <stop stop-color="#A374F5" offset="36.8955385%"></stop>
            <stop stop-color="#7147D4" offset="74.6192043%"></stop>
            <stop stop-color="#4733A8" offset="100%"></stop>
        </linearGradient>
    </defs>
    <g id="Assets" stroke="none" stroke-width="1" fill="none" fill-rule="evenodd">
        <g id="signs-light/aquarius" transform="translate(0.000000, 0.000000)" fill="url(#linearGradient-1)">
            <path d="M21.9553956,95.2448452 L22.7281204,95.2559687 L23.2711289,95.2745053 L23.8344669,95.3031864 L24.4164566,95.3430819 L25.0154204,95.3952613 L25.6296804,95.4607943 C25.9403549,95.4970775 26.2561363,95.5387694 26.5760809,95.5864718 L27.2212414,95.6900687 L27.875826,95.810763 C29.4128801,96.1131622 31.0131963,96.5639265 32.5808632,97.2242054 L32.9162572,97.3689228 C39.6579456,100.349822 45.9866189,100.33153 50.9010571,99.4139571 L51.5339682,99.2893465 C51.9504525,99.2031029 52.3559139,99.1107499 52.7496942,99.0136681 L53.3315215,98.8646714 L53.8953333,98.7096171 C53.9877733,98.6833275 54.079442,98.6568286 54.1703292,98.630142 L54.7061922,98.467943 L55.2228053,98.3022753 L55.719675,98.1341744 L56.1963074,97.9646759 L56.6522089,97.7948153 L57.2961104,97.5416107 L57.6980242,97.3753754 L58.2586299,97.1324629 L58.7670363,96.9003855 L59.0761514,96.7534128 C59.582472,96.5082983 60.1897855,96.7234544 60.4331176,97.2313863 C60.6764497,97.7399991 60.4636188,98.350062 59.9572983,98.5944957 L59.3296145,98.8886697 L58.8634618,99.0962969 L58.3602944,99.3107288 L57.8210918,99.5299046 C57.7282762,99.5667147 57.6339999,99.6036366 57.5382834,99.6406274 L56.9468646,99.8630548 C56.8454687,99.9001492 56.7426734,99.9372267 56.638499,99.9742442 L55.997068,100.195286 C53.1472388,101.147042 49.3927774,102.000227 45.092351,102.000227 C41.2890501,102.000227 37.0591027,101.333201 32.6489769,99.4768752 L32.0967906,99.2386024 C30.2435354,98.4195111 28.3065239,97.930099 26.4946955,97.6473798 L25.8956757,97.5606266 C25.7967074,97.5473874 25.6981971,97.5347439 25.6001806,97.5226752 L25.0182944,97.4569899 L24.4499803,97.4040847 L23.8969578,97.3629473 L23.3609466,97.3325654 L22.8436664,97.3119267 L22.346837,97.3000192 L21.8721778,97.2958305 L21.2055202,97.301806 L20.598419,97.3194551 L20.2296378,97.3360195 L19.5861011,97.3761089 L18.9757125,97.4288336 L18.5108618,97.4819478 C17.9516725,97.5548013 17.4419629,97.1660224 17.3660487,96.6077059 C17.2901345,96.0487085 17.6798726,95.5339678 18.2356729,95.4577099 L18.6759839,95.4047268 L19.1704389,95.3568389 L19.8099664,95.308882 L20.3767417,95.2780167 L20.7929364,95.2618753 L21.470551,95.2469903 L21.9553956,95.2448452 Z M27.7032254,89.4679391 L28.1011285,89.6171742 C28.4743214,89.760314 28.8406937,89.8987306 29.2005162,90.0325609 L30.2606055,90.4204292 C30.4341025,90.4828262 30.6060298,90.5441109 30.7764213,90.6043002 L31.7806113,90.9524289 C32.4381461,91.1759343 33.0721914,91.3824613 33.684915,91.5731035 L34.5882801,91.8472899 C35.3282099,92.0660785 36.0365179,92.2609016 36.7174378,92.4338954 L37.5216664,92.6311466 C38.445228,92.8493676 39.3184281,93.0264779 40.1528838,93.1683392 L40.8589142,93.2814388 C40.9750948,93.2988956 41.0905525,93.3156671 41.2053211,93.3317706 L41.8859344,93.420511 L42.5516353,93.4940372 C43.4300173,93.582294 44.2729678,93.6321672 45.097828,93.6524065 L45.7133521,93.6621663 C45.8154645,93.6629124 45.9173619,93.6632297 46.0190783,93.6631352 L46.6274748,93.657764 L47.2331517,93.6433307 L47.8377347,93.6206557 L48.4428496,93.5905593 L49.3550754,93.5332939 L49.9686325,93.4882326 L50.9011421,93.412365 C51.998369,93.3190744 53.0591238,93.170647 54.075107,92.9825036 L54.8285701,92.8341903 L55.5644657,92.6724291 C56.1701762,92.5324265 56.7567768,92.3799217 57.3222412,92.2186796 L57.9905235,92.0212362 L58.6377369,91.8168506 C58.7438069,91.7822882 58.8489665,91.7474967 58.9531997,91.7125063 L59.567351,91.5004183 L60.1584884,91.2850025 C60.2550502,91.2489028 60.3506207,91.2127247 60.4451837,91.1764984 L61.0003411,90.9588015 L61.5305393,90.741391 L62.0350003,90.5257127 L62.5129458,90.3132122 L62.9635979,90.1053353 L63.3861785,89.9035276 L63.9657131,89.6153585 L64.47771,89.3489774 L64.9195433,89.1092635 L65.5822145,88.7293544 L65.9843427,88.4814766 C66.4527061,88.1730407 67.0823872,88.3010451 67.3914664,88.7701672 C67.6790979,89.2057805 67.5915228,89.7805318 67.2047172,90.1106385 L67.0853359,90.1986753 L66.6235679,90.4853339 L66.1851491,90.7417018 L65.7701822,90.9742188 L65.2840236,91.2359637 L64.7290615,91.5221981 L64.3220421,91.7242866 L63.8862123,91.9337495 L63.4222799,92.149183 L62.9309525,92.3691832 L62.4129376,92.5923461 L61.868943,92.8172679 L61.2996761,93.0425446 L60.7058447,93.2667724 L60.0881563,93.4885472 L59.4473186,93.7064653 C59.3386226,93.7423855 59.2289914,93.7780866 59.1184399,93.8135393 L58.444205,94.0230398 L57.7485898,94.2251737 L57.032302,94.4185372 C55.2163312,94.8898128 53.213188,95.2657035 51.0726268,95.4474968 C49.3049107,95.59797 47.6368319,95.7103142 45.9199512,95.7103142 L45.3106757,95.7055013 C45.106743,95.7022518 44.9018885,95.6973161 44.695869,95.6905713 L44.0740726,95.6647868 L43.4438277,95.6274107 C43.3380018,95.6201744 43.2317631,95.6124244 43.1250812,95.6041453 L42.4794284,95.5479994 L41.8216802,95.4784188 C41.7109666,95.4656615 41.5996881,95.4523137 41.4878146,95.4383601 L40.8091883,95.3472451 L40.11482,95.2408523 C39.8805781,95.2027598 39.6434694,95.1619982 39.4032508,95.1184445 L38.673022,94.9792845 C38.3029997,94.9053935 37.9254329,94.824944 37.5395013,94.7375213 L36.7562417,94.5532553 L35.949217,94.3496568 C35.8126514,94.3140717 35.6750349,94.2776503 35.5363369,94.2403774 L34.6909295,94.0063978 L33.8181102,93.7512425 C33.2267692,93.5739167 32.6161811,93.3819823 31.984401,93.1744564 L31.0205937,92.851351 L30.0235396,92.504121 C29.8545123,92.4441981 29.684039,92.3832392 29.5120892,92.321229 L28.4624298,91.93643 C28.2844527,91.8701534 28.1049383,91.8027948 27.9238562,91.7343388 L27.3758769,91.5256635 C22.7258165,89.7421826 18.7994924,89.7075065 15.9058544,90.1962954 L15.4199759,90.284987 C15.2614269,90.3161077 15.1063075,90.348709 14.9546755,90.3825624 L14.5102991,90.4876498 L14.0871925,90.5988775 L13.6857017,90.7148735 L13.3061725,90.8342662 C13.244767,90.8543718 13.1842909,90.8745618 13.1247516,90.8948075 L12.7788133,91.0167229 L12.3028133,91.1991056 L11.8793399,91.3767844 L11.6267822,91.4903373 L11.2934471,91.6498876 L10.9357523,91.8352985 L10.5561225,92.0538215 L10.4924255,92.0941932 C10.0227065,92.4012673 9.39166977,92.2664542 9.0859796,91.7932469 C8.80212443,91.3538401 8.89756703,90.7770567 9.28981867,90.4510402 L9.40024303,90.3709587 L9.67868199,90.2034661 L9.88991542,90.0855523 L10.2546799,89.894859 L10.5891705,89.7318654 L10.8405627,89.6158913 L11.2594358,89.4338957 L11.5660668,89.3089199 L12.0662737,89.1189207 L12.426111,88.9922752 L12.8066618,88.8670149 L13.2076009,88.7443129 L13.628603,88.6253425 C13.7004239,88.6058902 13.7730672,88.5866423 13.8465261,88.5676231 L14.2970131,88.4564496 L14.7667503,88.3519404 C14.8466259,88.3351427 14.9272901,88.3186717 15.008736,88.3025516 L15.5067385,88.2102386 C15.6758303,88.181002 15.847995,88.153365 16.0231782,88.127523 L16.5577299,88.0555778 C19.5469756,87.6916485 23.3432956,87.8696597 27.7032254,89.4679391 Z M36.8156709,4.58405339e-07 C41.5914638,0.227899324 43.282138,2.51018319 43.8331118,5.26195939 L43.901363,5.63996283 C43.9321392,5.83027074 43.9580283,6.02242631 43.9796469,6.21592719 L44.0173728,6.60457385 C44.0227723,6.66959764 44.027743,6.73473369 44.0323078,6.79996341 L44.0550071,7.1923168 L44.069059,7.58602502 L44.0763209,8.17717406 L44.0763209,16.7766106 C44.0763209,21.3010172 41.8341411,27.5664182 36.8766733,28.26908 C36.9139526,28.3303587 36.95801,28.3950417 37.0108788,28.4665335 C37.5892726,29.2518079 39.0080835,29.7350894 40.8357878,29.7793355 L41.2353678,29.7839544 L41.3761807,29.7929715 L41.5415243,29.8174261 L41.6353104,29.8378524 L41.7375277,29.8650301 L41.9083379,29.9205644 L42.1024278,29.9967119 L42.3223832,30.0967262 L42.5707899,30.223861 L42.8502335,30.3813697 L43.055049,30.5048566 L43.5125751,30.8005233 L43.9006446,31.0686753 L44.3300942,31.3802155 L44.8035098,31.7383975 L45.3234772,32.1464748 L45.6972611,32.4478527 L46.3005609,32.9463191 L46.732294,33.310969 L47.426109,33.9088621 L48.1776807,34.5707494 L48.9895951,35.2998844 L49.8644378,36.0995207 L51.1332527,37.2809945 L52.1649842,38.2577864 L53.2682633,39.3159249 L54.8550678,40.8589385 L56.5797943,42.5600645 L58.4485722,44.4270148 L59.9483765,45.9406891 L61.5352431,47.5552313 L63.2117579,49.273895 C63.4031135,49.4707626 63.5961772,49.6696187 63.7909649,49.8704833 C64.2938964,49.7581391 64.8313959,49.8289499 65.3173823,50.0904055 C66.0229776,50.4696522 66.4438947,51.2220179 66.4438947,52.1030685 L66.4438947,65.4516001 C66.5814891,65.3746613 66.7380622,65.3290428 66.9054801,65.3235958 L67.0819562,65.3219882 L67.2521022,65.3270474 L67.4598076,65.3405404 L67.7012695,65.365492 L67.9726851,65.4049272 C68.8755798,65.5559304 70.1718236,65.9702898 71.3179923,67.0802503 C72.5990443,68.3214833 73.2219473,70.0917553 73.2219473,72.4925164 L73.2219473,80.7283663 C73.2219473,81.2921298 72.76714,81.749677 72.2052394,81.749677 C71.6440167,81.749677 71.1885315,81.2921298 71.1885315,80.7283663 L71.1885315,72.4925164 C71.1885315,70.6507526 70.7811706,69.3979448 69.9068018,68.5502569 C69.2586302,67.9228725 68.5371471,67.6263307 67.9700359,67.4867744 L67.7200827,67.4328776 C67.6805271,67.4255416 67.6420921,67.4189762 67.6048816,67.4131024 L67.3971393,67.3855242 L67.2237557,67.3707438 L67.0897052,67.3649626 L66.9732606,67.3648556 C66.7868641,67.3696217 66.6004677,67.3240031 66.4438947,67.2361704 L66.4438947,70.4880238 C66.4438947,71.3888199 66.0324669,72.1241636 65.3139933,72.5061339 C64.5738299,72.9003598 63.7482631,72.8506561 63.0508015,72.37064 L62.9341402,72.2920458 L62.6555815,72.1125776 L62.3221324,71.9087119 L61.9403023,71.6868192 C61.8729938,71.6486888 61.8039407,71.6100726 61.7332785,71.5711035 L61.2910817,71.334115 C59.9130749,70.6168132 58.1016127,69.8711522 56.6475752,69.8711522 C56.4564341,69.8711522 56.2944386,69.8847696 56.1215983,69.9154089 C55.8439693,69.9641595 55.4909683,70.0997351 55.0883628,70.2898459 L54.6701768,70.4969393 C54.5980414,70.534086 54.5247668,70.5724485 54.4504721,70.6118775 L53.993418,70.8600521 L52.7271495,71.5767411 C49.1740943,73.5982555 44.9154438,75.6912617 40.0094893,76.1345106 L40.0094893,88.4671783 C41.9161555,88.8328075 43.9312705,89.0574959 46.2391975,89.0574959 C46.7956756,89.0574959 47.3657098,89.0452402 47.9560782,89.0180052 C49.9093984,88.9288587 51.83199,88.64892 53.66296,88.2551537 L54.4418744,88.0796521 L55.2085047,87.8915588 C55.5885712,87.7945885 55.9636318,87.6934013 56.3330872,87.5887543 L57.0643468,87.3750717 L57.4240386,87.2651914 L57.4240386,87.2651914 L58.1308804,87.0401942 L58.8201121,86.8093369 C58.9334574,86.7704471 59.0460245,86.7313693 59.1577913,86.6921314 L59.8186107,86.4550082 L60.459157,86.2153907 L61.0783651,85.9746251 L61.6751698,85.7340578 C61.7727111,85.6940546 61.8692746,85.6541157 61.964838,85.6142692 L62.5260404,85.3765237 L63.0621764,85.1423423 L63.8170508,84.8006979 L64.5095343,84.4746457 L65.1360318,84.1687296 L65.6929484,83.8874934 L66.3210531,83.5587562 L66.9102622,83.2373024 L67.3609652,82.9793352 C67.8449182,82.6920064 68.468499,82.8526927 68.753855,83.3374748 C69.0200872,83.7882619 68.9011774,84.3605746 68.4958947,84.6700851 L68.3760758,84.7492476 L67.7543987,85.1015573 L67.2442835,85.377426 L66.6013858,85.7126015 L65.8335427,86.097131 L65.1803798,86.4119293 L64.4646501,86.7446916 L63.9543705,86.9744396 L63.1417104,87.327811 L62.569872,87.5674105 L61.9751245,87.8087733 L61.3584476,88.0506554 C61.2538951,88.0909432 61.1484697,88.1312008 61.0421918,88.1714024 L60.3944577,88.4117305 L59.7272434,88.6494676 L59.0415285,88.8833695 L58.3382928,89.112192 L57.9804108,89.2243098 L57.2527306,89.4431805 C57.1301674,89.479011 57.0069762,89.5145003 56.8831775,89.5496225 L56.1332572,89.7557422 C53.6103084,90.4267391 50.860657,90.9301382 48.0475819,91.0585841 C47.4260345,91.0871808 46.825499,91.1001174 46.2412309,91.1001174 C42.0398811,91.1001174 38.8031002,90.4111859 35.5131007,89.4792844 L34.5234865,89.1928708 L33.5245724,88.8945548 L31.1681974,88.1807006 C30.7110177,88.0433343 30.2433321,87.9044361 29.7631071,87.7651974 C29.4126817,87.8577962 29.0100654,87.7372816 28.7674111,87.4819538 L28.2415174,87.3367756 L27.1571576,87.0483862 C25.4964924,86.6186059 23.6776019,86.2039537 21.6375775,85.8383244 C16.6265245,84.943092 12.6264016,85.794236 9.83044944,86.9128759 L9.34958548,87.1127587 L8.8939576,87.316389 C8.74631388,87.3846896 8.6029155,87.4533139 8.4638018,87.5219606 L8.05935406,87.7276676 C7.99410155,87.761863 7.92993005,87.7959888 7.86684446,87.8300074 L7.50140132,88.0325309 L7.16225622,88.2306745 L6.84964517,88.4226321 L6.43099619,88.695019 L6.18575274,88.86361 L5.96786932,89.0196938 L5.61512656,89.2871151 L5.33230194,89.5188675 L5.22858983,89.6103654 C4.82055106,89.9943782 4.17934727,89.9780373 3.79435388,89.5715557 C3.4383497,89.1963417 3.42136045,88.6209752 3.7375219,88.2283568 L3.84536595,88.1136847 L4.1028674,87.8883845 L4.43193484,87.6223956 L4.6429329,87.4608432 L4.88457138,87.2829982 L5.1565984,87.0909202 L5.45876211,86.8866688 L5.79081063,86.6723035 C5.84862846,86.6358475 5.90768099,86.599056 5.96796298,86.5619717 L6.34436648,86.3362972 C6.40954533,86.2982138 6.47594313,86.2599236 6.54355466,86.2214694 L6.96374644,85.9891197 C7.10863725,85.9112428 7.25834096,85.8330533 7.41281558,85.7548944 L7.89051021,85.5208529 L8.39657847,85.289055 C10.8240437,84.2157695 14.1701531,83.2830488 18.3197207,83.4327972 L18.3197207,63.3756158 C18.0876182,63.1903445 17.8565277,63.0024054 17.6267788,62.8123652 L16.9418866,62.2365082 L16.2670217,61.651445 C16.1554897,61.5533561 16.044458,61.4550254 15.9339676,61.3565236 L15.2778518,60.7640265 L14.6367075,60.170824 L14.0125124,59.5803161 L13.407244,58.9959032 L12.8228801,58.4209857 L11.9898562,57.583851 L11.2149915,56.7872072 L10.5049608,56.0425302 L9.67064226,55.1502996 L8.24889009,53.5962249 C6.64249161,51.8456982 6.12532619,49.4476606 6.71094994,46.4674759 L6.78374181,46.1225919 L6.87879297,45.7125061 L7.0598027,44.9879972 L7.20389573,44.4406534 L7.36496297,43.8487052 L7.73197998,42.5545351 L7.93490972,41.8640832 L8.25933391,40.7907484 L8.48676766,40.0586694 L8.84086965,38.9504796 L9.20598323,37.8478592 L9.45299311,37.1256813 L9.70112198,36.4206912 L9.94885981,35.7387738 L10.1946966,35.0858141 L10.4371223,34.467697 C10.5171945,34.2681189 10.5964466,34.0753288 10.6746268,33.8903075 L10.9057003,33.3595306 C11.2846245,32.5170156 11.6304606,31.8932405 11.9117498,31.6108088 C12.2380078,31.2830737 12.6841181,30.9895272 13.3001287,30.6846509 L13.6532849,30.5169576 L14.0419452,30.3453755 L14.4679145,30.1682631 L14.9329977,29.9839788 L15.4389996,29.7908812 L16.5809794,29.3716798 L19.5842618,28.2972086 L20.6013705,27.9215675 L21.2587691,27.6700813 L21.8853614,27.4207603 C22.6948453,27.0909232 23.3895686,26.7737449 23.839089,26.4967654 C23.8838858,26.4201362 23.927523,26.3130646 23.969468,26.177653 L24.0310497,25.9535436 L24.0896936,25.6885012 L24.1450002,25.3841026 L24.19657,25.0419248 L24.2440033,24.6635445 C24.251542,24.5975518 24.2588917,24.5301165 24.2660441,24.4612712 L24.3065239,24.0315439 L24.3418686,23.5695562 L24.3716786,23.0768851 L24.3955546,22.5551075 L24.413097,22.0058001 L24.4239063,21.4305398 L24.4275829,20.8309035 L24.4237275,20.208468 L24.4119404,19.5648102 L24.3918222,18.901507 C24.3877527,18.7894069 24.3833194,18.676554 24.378514,18.5629811 L24.3451501,17.8731662 L24.3024562,17.1676481 L24.250033,16.4480034 L24.1874809,15.7158092 C23.5252652,15.6865315 22.850849,15.5905284 22.7518894,14.8381628 C22.3709628,13.2313005 22.2394686,11.2840014 22.3594401,9.05005432 C22.5824381,4.91510752 26.4954079,0.479895372 34.54909,0.0373273807 C34.6297489,0.0162202919 34.7144745,0.00532631056 34.8012336,0.00464543672 L35.6871251,0.00192194139 C35.7732064,4.58405339e-07 35.8619988,-0.00148242778 35.9474023,0.00260281523 L36.8156709,4.58405339e-07 Z M30.5202155,75.6027481 L30.5202155,85.8587506 L31.1862545,86.0547572 L32.4741057,86.4416637 L33.0985868,86.6315424 C34.7727658,87.140836 36.3588301,87.6222139 37.9760735,88.020525 L37.9760735,76.1454045 L35.5807097,76.1283827 L34.2029114,75.9996995 C33.9693867,75.9769051 33.7337872,75.9534199 33.495919,75.9292181 L32.0399379,75.7752017 C31.5445038,75.7208588 31.038446,75.6634431 30.5202155,75.6027481 Z M20.3531365,70.9653164 L20.3531365,83.5853129 C20.8892805,83.6472724 21.4355916,83.7276155 21.9941031,83.8277039 C24.4409801,84.2655058 26.5692886,84.7707143 28.4867997,85.2868166 L28.4867997,75.1458817 C28.1736537,75.0975397 27.9282882,75.052602 27.7283356,74.9668119 L27.0796692,74.8246902 L26.4708055,74.6822031 L25.9009126,74.5401032 L25.369159,74.399143 L24.6412199,74.1914859 L24.2011751,74.0566675 L23.7963584,73.9256226 L23.2533662,73.7377772 L22.9329803,73.6194588 L22.5127357,73.4542306 L22.2715823,73.3533422 L21.879156,73.1771846 L21.5027409,72.9882846 L21.361033,72.9078494 C20.720507,72.5102191 20.3531365,71.8027912 20.3531365,70.9653164 Z M70.5493612,58.6333295 C72.659369,58.6333295 74.8920595,59.429271 76.5208256,60.762422 C78.1082455,62.0615293 80,64.5657832 80,69.12151 L80,81.72857 C80,82.2930144 79.5451927,82.7498807 78.9832921,82.7498807 C78.4220693,82.7498807 77.9665842,82.2930144 77.9665842,81.72857 L77.9665842,69.12151 C77.9665842,63.7188466 74.9052775,61.5263737 72.2779535,60.889075 L71.9451773,60.8160384 C71.8901973,60.8052311 71.835481,60.795096 71.7810623,60.7856171 L71.4583886,60.7364904 C71.4052943,60.7295725 71.3525649,60.723279 71.3002339,60.7175937 L70.9912986,60.6906554 L70.6935423,60.6775529 L70.5493612,60.675951 L70.5493612,60.675951 C69.9874606,60.675951 69.5238418,60.2190847 69.5238418,59.6546403 C69.5238418,59.1278255 69.9135347,58.6947231 70.4217886,58.6393175 L70.5493612,58.6333295 Z M34.7334531,48.6101858 C34.2963015,48.6577261 33.8729247,48.7080849 33.4629979,48.7608889 L32.6609816,48.8696465 L31.8942551,48.984261 L31.1622412,49.1040688 L30.4643626,49.2284064 C30.3508621,49.2494699 30.2387598,49.2706946 30.1280438,49.2920665 L29.4802861,49.4219545 C29.3750669,49.4438601 29.2712099,49.4658854 29.168703,49.4880165 L28.5697676,49.6219619 L28.0026589,49.7577827 L27.4667997,49.8948155 L26.9616129,50.0323965 L26.4865213,50.1698623 L26.0409476,50.3065492 L25.6243148,50.4417938 L25.2360457,50.5749324 L24.8755631,50.7053014 L24.3856762,50.8942105 L24.0921346,51.0147525 L23.6999539,51.1858106 L23.2638618,51.392195 L22.9227547,51.5689212 L22.6229095,51.7400347 L22.4143424,51.8742949 L22.4045603,51.9110621 C22.3965567,51.9449697 22.3865523,52.0021631 22.3865523,52.0826423 L22.3865523,70.9653164 C22.3865523,71.0704433 22.4065069,71.1311228 22.4183061,71.1553728 L22.4295246,71.169376 L22.6027015,71.2602033 L22.7888808,71.3493742 L23.0454482,71.46379 L23.3753993,71.6005058 L23.7817298,71.7565769 L24.0965291,71.8699228 L24.4474938,71.9896897 L25.0436926,72.1794705 L25.488954,72.3114721 L25.9734875,72.4468408 L26.4981805,72.5847038 L27.0639207,72.7241886 L27.6715957,72.8644227 L28.3220931,73.0045335 C28.4095299,73.0222362 28.4935778,73.0521947 28.5715254,73.0916854 L28.9416071,73.1488787 C29.3415122,73.2094765 29.7969973,73.2782448 30.1155658,73.498848 C30.6271393,73.5599564 31.1265124,73.6180009 31.6151146,73.6731197 L33.050039,73.8298377 L34.4289173,73.9698318 C34.8801556,74.0138013 35.3234826,74.0551219 35.7603281,74.0939317 L38.4191529,74.1059081 L38.8131458,74.1134456 C38.9963399,74.1188793 39.1592673,74.1272094 39.303894,74.1402311 C42.6969484,73.9241023 45.8246108,72.780949 48.2503942,71.6369041 L48.8942415,71.3255656 C48.9985398,71.2739041 49.1013059,71.2224147 49.2024989,71.1711844 L49.7904511,70.8676075 L50.3386802,70.5744237 L51.0822391,70.1632675 L52.6544247,69.2709231 L53.2471724,68.9414219 C54.2066324,68.4183897 55.0278142,68.0337654 55.7704951,67.9034267 C56.1642838,67.8342579 56.5770371,67.8164691 56.9994109,67.8393115 L56.999,54.683 L56.9675159,54.6651687 C56.8531759,54.6038282 56.7271524,54.5397219 56.5901721,54.4731128 L56.1470869,54.2660392 L55.6426193,54.045525 C55.5536683,54.0077402 55.4623413,53.9694611 55.3687292,53.9307205 L54.7803612,53.6930021 L54.1415084,53.4457855 L53.4565298,53.1906476 L52.7297845,52.9291655 L51.9656316,52.6629161 L51.16843,52.3934764 L50.3425388,52.1224233 L49.4923171,51.8513339 L48.622124,51.5817851 L47.7363183,51.3153538 L46.8392593,51.0536172 L46.387872,50.9250021 L45.482106,50.6732642 L44.5759843,50.4301632 C44.4251765,50.3904538 44.2745355,50.3511699 44.1241522,50.3123445 L43.22567,50.0851559 L42.3377296,49.8705467 C42.1908602,49.8359145 42.0446116,49.801872 41.8990748,49.7684523 L41.0351203,49.5756692 L40.1926052,49.399408 C40.0542148,49.3714955 39.9168994,49.3443372 39.7807497,49.3179659 L38.978567,49.1694444 C37.536209,48.915432 36.2568836,48.7645941 35.2614634,48.7606589 C35.0676111,48.759978 34.8873149,48.7048273 34.7334531,48.6101858 Z M64.3840445,51.928084 L64.2859321,52.0011077 L64.1626113,52.0696803 L62.9131808,52.661709 L61.9037008,53.124124 L61.2400396,53.4192398 L60.5652444,53.7100956 L59.9057803,53.9823648 L59.4877238,54.1464768 L59.0960848,54.291716 L58.999,54.324 L59,68.0194275 C59,68.0794215 58.9945199,68.13815 58.9840235,68.195158 C59.5797616,68.3639841 60.1679856,68.5806253 60.7219551,68.8149632 L61.1613373,69.0074687 C61.2331639,69.0400065 61.3042478,69.0727241 61.3745279,69.1055513 L61.7860738,69.3032665 C61.8528941,69.3362506 61.9187884,69.3692036 61.9836955,69.4020552 L62.5395546,69.6930827 L63.0322017,69.9672419 L63.3206246,70.1350175 L63.8802561,70.4773543 L64.2044261,70.6888816 C64.2823737,70.7426706 64.2966076,70.735181 64.3630325,70.7004565 C64.3779442,70.6882008 64.4104789,70.6235177 64.4104789,70.4880238 L64.4104789,52.1030685 C64.4104789,52.0274916 64.3989562,51.965532 64.3840445,51.928084 Z M26.4472837,20.6691663 L26.4487298,21.2752276 L26.4425536,21.8826204 C26.4408389,21.9837272 26.438769,22.0847122 26.4363251,22.1854868 L26.4170232,22.786901 L26.3878426,23.3790122 C26.3821058,23.4766858 26.3759198,23.5737946 26.3692658,23.6702499 L26.323575,24.2404307 C26.3149737,24.3339175 26.3058667,24.4265736 26.2962354,24.5183104 L26.2320037,25.0569897 C26.031331,26.5479726 25.6682313,27.7220405 25.050327,28.1437992 C24.4708035,28.5218884 23.6197885,28.9188668 22.6273591,29.3235043 L21.9462166,29.594274 L21.2317384,29.8665737 L20.1162517,30.2762743 L16.8203251,31.4556411 L16.0302433,31.7484683 L15.5455899,31.9349111 L15.0979333,32.114485 C15.0265661,32.1438488 14.9568598,32.1729317 14.8888741,32.2017366 L14.5020849,32.3712502 C13.9543045,32.6205795 13.5555631,32.8478204 13.3493747,33.0549422 C13.2656721,33.1471171 13.1624667,33.3141724 13.0436146,33.5440485 L12.8937284,33.8492821 C12.8675779,33.9049228 12.8408633,33.9628834 12.8136153,34.0230673 L12.6439744,34.4100802 L12.368753,35.0805228 L12.1735914,35.5806802 L11.970813,36.1179915 L11.7618985,36.6878258 L11.3315843,37.9065399 L11.0037547,38.8715066 L10.5693583,40.1963223 L10.3566533,40.8646794 L10.148918,41.5308282 L9.84987271,42.5157809 L9.57033881,43.4697164 L9.31531399,44.3770058 L9.08979591,45.2220198 L8.8987822,45.9891294 L8.7930768,46.4495376 L8.70640865,46.8637444 C8.24685668,49.2005034 8.58643712,50.9496683 9.74412851,52.2113275 L10.6469771,53.2023815 L11.5971532,54.2291223 L12.5147739,55.1983571 L13.2834956,55.9922096 L13.8302567,56.5464162 L14.4019181,57.1163079 L14.9963164,57.6982057 L15.6112883,58.2884306 L16.2446706,58.8833037 L16.8943001,59.4791458 C17.0038054,59.5783292 17.1138975,59.6773997 17.2245314,59.7762806 L17.8944753,60.3666783 C18.5701992,60.953575 19.2621815,61.528129 19.9606873,62.073785 C20.208764,62.2671532 20.3531365,62.564695 20.3531365,62.8799396 L20.3531365,56.9161657 L20.0402687,56.6623563 L19.477735,56.1894499 L19.0535825,55.8202929 L18.6005457,55.4140871 C18.5231288,55.3435873 18.4448804,55.2717602 18.3659867,55.1987142 L17.8863694,54.746675 C17.8056387,54.6691856 17.7246348,54.5906936 17.6435439,54.5113073 L17.1574411,54.0251223 C15.8663182,52.7046259 14.6481589,51.2105747 14.2650896,49.9862318 C13.6683603,48.0823515 14.2155447,45.725408 14.9798553,43.4793727 L15.2033374,42.8411534 L15.4338323,42.211893 L15.8464093,41.1069562 C16.3154506,39.7955931 17.4331515,38.6939393 19.1676551,37.8299104 L20.5273325,37.1531218 C21.030264,36.9018794 21.6402887,37.108865 21.8897211,37.6140734 C22.1391534,38.1192818 21.9337784,38.7320682 21.4308469,38.9826298 L20.0711696,39.6600992 C18.8226523,40.2817371 18.0452096,41.0007398 17.7598536,41.7980431 L17.220341,43.2498856 C17.1431998,43.4613178 17.0677642,43.6724021 16.9947181,43.8825919 L16.7834327,44.5099317 C16.1751873,46.3806219 15.8159081,48.1345955 16.2042905,49.3734453 C16.4774743,50.2459001 17.5824922,51.5689502 18.8149832,52.8090297 L19.2541261,53.2423908 L19.6969734,53.6636487 C19.7707076,53.7325601 19.8443095,53.8007501 19.9176356,53.8681099 L20.3531365,54.2614386 L20.3531365,52.0826423 C20.3531365,51.3505327 20.6162662,50.7311314 21.0971043,50.3188387 L21.2546885,50.1967035 L21.4891188,50.0435153 L21.7534084,49.8870023 L22.0115593,49.7450206 L22.323213,49.5845647 L22.6902876,49.4079823 L23.1147011,49.2176213 L23.5983714,49.0158296 L24.1432167,48.804955 L24.54138,48.6604854 L24.968153,48.513718 L25.4241038,48.3653486 L25.9098009,48.2160729 L26.4258124,48.0665865 L26.9727067,47.917585 L27.5510521,47.7697641 L28.1614169,47.6238195 C28.2658442,47.5996905 28.3716293,47.5756685 28.4787841,47.5517683 L29.1382436,47.4099425 L29.8311431,47.2717321 L30.5580511,47.1378329 L31.3195359,47.0089404 L32.1161656,46.8857503 L32.9485088,46.7689583 L33.8171335,46.65926 C34.1127852,46.6239535 34.4145785,46.5899453 34.7226082,46.5573512 L36.2158132,41.2798981 C36.5025248,40.2722048 37.4006168,39.5688621 38.4010574,39.5688621 L41.1007558,39.5688621 C41.5711526,39.5688621 42.0408717,39.7492937 42.4950012,40.104029 L57.7149525,52.0405333 C57.8052718,52.0142766 57.900944,52.0001827 58,52.0001827 C58.266705,52.0001827 58.5088798,52.1023552 58.6880891,52.2690042 C58.7645907,52.2400345 58.8455359,52.2086257 58.928873,52.1757541 L59.4854804,51.9496563 L60.0846627,51.6952797 L61.0162929,51.2845119 L61.9229335,50.8713678 L59.9610853,48.8604665 L58.1252766,46.9956352 L56.001405,44.8616644 L54.815095,43.6822779 L53.3323808,42.2227994 L51.9590233,40.8874862 L50.6908519,39.6708621 L49.8062428,38.8329894 L48.7121113,37.810894 L47.9532424,37.1126288 L47.0203782,36.2682914 L46.1739321,35.5180002 L45.5933004,35.0137054 L44.88805,34.414818 L44.2577483,33.8949173 L43.6982246,33.4485271 L43.2053082,33.0701712 L42.876823,32.8277576 L42.4026145,32.4956578 L42.1591821,32.3357867 L41.8163017,32.1275674 L41.6454102,32.0338104 L41.4545483,31.9403797 L41.3021416,31.878019 L41.1593571,31.8354179 L41.0932999,31.8246032 C38.430203,31.8246032 36.3947538,31.0640672 35.3760125,29.6818932 C34.9855966,29.1514925 34.7958112,28.6939453 34.7165079,28.2200571 C31.0339919,27.5419068 27.5297387,23.9748087 26.4472837,20.6691663 Z M41.0682211,41.6087601 L38.4010574,41.6114836 C38.3251432,41.6114836 38.2078829,41.7108912 38.1719592,41.8395764 L36.7675467,46.8017849 C39.3663247,47.0539514 42.9180468,47.8492502 46.411651,48.8176931 L47.6406282,49.1660834 L48.25022,49.344541 L49.4534363,49.7077217 C50.2468375,49.9520244 51.0205576,50.1998883 51.7614259,50.4464936 L52.8464432,50.8148553 L41.2451283,41.7149765 C41.1990375,41.6790264 41.1616227,41.6548417 41.1332742,41.6387622 L41.0682211,41.6087601 Z M59.4584336,17.1000257 C60.9401159,17.1000257 61.9358118,18.2377658 61.9358118,19.93178 L61.9358118,21.6142192 L63.6587928,21.6142192 C65.3444945,21.6142192 66.4777849,22.6144228 66.4777849,24.1021321 C66.4777849,25.5905223 65.3444945,26.5900451 63.6587928,26.5900451 L61.9358118,26.5900451 L61.9358118,28.3814242 C61.9358118,30.0754383 60.9401159,31.2138594 59.4584336,31.2138594 C57.9774291,31.2138594 56.9817331,30.0754383 56.9817331,28.3814242 L56.9817331,26.5900451 L55.2465517,26.5900451 C53.56085,26.5900451 52.4275596,25.5905223 52.4275596,24.1021321 C52.4275596,22.6144228 53.56085,21.6142192 55.2465517,21.6142192 L56.9817331,21.6142192 L56.9817331,19.93178 C56.9817331,18.2377658 57.9774291,17.1000257 59.4584336,17.1000257 Z M59.4832204,19.142881 L59.4041067,19.1445177 C59.2661387,19.1566762 59.0151489,19.2478649 59.0151489,19.93178 L59.0151489,22.6355299 C59.0151489,23.1999743 58.5603416,23.6568406 57.998441,23.6568406 L55.2465517,23.6568406 C54.6704624,23.6568406 54.5168386,23.8373569 54.4758723,23.9768635 L54.4628375,24.0475593 L54.4628375,24.1569095 L54.4758723,24.2276938 C54.5168386,24.3672735 54.6704624,24.5474236 55.2465517,24.5474236 L57.998441,24.5474236 C58.5603416,24.5474236 59.0151489,25.0049708 59.0151489,25.5687344 L59.0151489,28.3814242 C59.0151489,28.9606209 59.1948516,29.1150734 59.3337294,29.1562607 L59.4041067,29.1693657 L59.512997,29.1693657 L59.5835482,29.1562607 C59.7226933,29.1150734 59.902396,28.9606209 59.902396,28.3814242 L59.902396,25.5687344 C59.902396,25.0049708 60.3572034,24.5474236 60.9191039,24.5474236 L63.6587928,24.5474236 C64.2872538,24.5474236 64.412946,24.3330301 64.4380845,24.1907983 L64.4441363,24.1270225 L64.442507,24.0475593 C64.4304033,23.9089667 64.3396256,23.6568406 63.6587928,23.6568406 L60.9191039,23.6568406 C60.3572034,23.6568406 59.902396,23.1999743 59.902396,22.6355299 L59.902396,19.93178 C59.902396,19.3004737 59.6885349,19.1742125 59.5467706,19.1489602 L59.4832204,19.142881 Z M36.111803,9.2137243 L35.0526151,9.21897921 L33.9855965,9.23198719 L33.453542,9.24186422 L32.4011252,9.26929569 C30.7960665,9.31956951 29.7585186,11.1949277 29.1189117,13.0860216 L28.9729597,13.5392599 L28.8417678,13.9875441 L28.7248149,14.425316 L28.6215802,14.8470171 L28.5315428,15.2470892 L28.4541817,15.619974 L28.3889761,15.9601132 L28.2929474,16.5199212 C28.231945,16.9032531 27.9608229,17.2191786 27.5920968,17.3349271 C27.5134714,17.3594386 27.4333397,17.3745691 27.3529068,17.3797135 L27.1644142,17.3818444 L26.3354458,17.422079 L26.3462907,17.6120427 L27.1710458,18.0861047 L27.4805016,18.2565753 C27.5049947,18.2693213 27.5251447,18.2793747 27.5399058,18.2861078 C27.8984648,18.4181974 28.1180737,18.7259524 28.1648422,19.1065608 C28.541702,22.1773018 32.4560274,26.2911416 35.9419799,26.2918224 C39.2564853,26.2912802 41.1608561,22.6913735 41.7991749,19.2871781 L41.8800404,18.8138261 C41.9890572,18.1068489 42.0429051,17.4161781 42.0429051,16.7766106 L42.0429051,9.26725307 L38.6332959,9.22472805 L37.149108,9.21473238 L36.111803,9.2137243 Z M7.61649778,8.96085985 C11.8161792,8.96085985 15.2329956,12.3931448 15.2329956,16.61252 C15.2329956,20.8312143 11.8161792,24.2634993 7.61649778,24.2634993 C3.41681635,24.2634993 0,20.8312143 0,16.61252 C0,12.3931448 3.41681635,8.96085985 7.61649778,8.96085985 Z M7.61649778,11.0034813 C4.53790626,11.0034813 2.0334158,13.519991 2.0334158,16.61252 C2.0334158,19.705049 4.53790626,22.2208778 7.61649778,22.2208778 C10.6950893,22.2208778 13.1995798,19.705049 13.1995798,16.61252 C13.1995798,13.519991 10.6950893,11.0034813 7.61649778,11.0034813 Z M34.6839733,15.0574042 C35.2458739,15.0574042 35.7006812,15.5142705 35.7006812,16.0787149 C35.7006812,16.6431593 35.2458739,17.1000257 34.6839733,17.1000257 L31.5369234,17.1000257 C30.9757007,17.1000257 30.5202155,16.6431593 30.5202155,16.0787149 C30.5202155,15.5142705 30.9757007,15.0574042 31.5369234,15.0574042 L34.6839733,15.0574042 Z M40.3483919,15.0574042 C40.9102925,15.0574042 41.3650998,15.5142705 41.3650998,16.0787149 C41.3650998,16.6431593 40.9102925,17.1000257 40.3483919,17.1000257 L37.2013421,17.1000257 C36.6401193,17.1000257 36.1846342,16.6431593 36.1846342,16.0787149 C36.1846342,15.5142705 36.6401193,15.0574042 37.2013421,15.0574042 L40.3483919,15.0574042 Z M36.7689023,2.04318169 L35.6627241,2.04522431 C35.508465,2.04745476 35.3517694,2.05189056 35.1929776,2.05858735 L34.7106535,2.08551633 L34.2177924,2.12634509 L33.7164349,2.18140746 L33.2086217,2.25103727 C29.1257356,2.86723576 24.6190092,4.91395708 24.3901447,9.16035588 C24.2972854,10.8850093 24.3643881,12.403358 24.5907751,13.6868051 L24.852651,13.6994439 C25.4960555,13.7410135 26.0388861,13.8799329 26.122615,14.6236875 L26.1917511,15.3842236 L26.4276273,15.3726488 C27.4002779,10.2000502 29.4838513,7.31723042 32.3374115,7.22735507 L32.8689252,7.21197159 L33.944379,7.18925704 L35.0247465,7.1759985 L36.0960417,7.17065933 L37.1442785,7.17170288 L39.1156331,7.18679159 L42.0225709,7.22463157 L41.9960907,6.79532738 C41.7689163,3.85280929 40.634703,2.22711048 36.7689023,2.04318169 Z" id="Combined-Shape"></path>
        </g>
    </g>
</svg>