<svg id="Signe_bellier" data-name="Signe/bellier" xmlns="http://www.w3.org/2000/svg" xmlns:xlink="http://www.w3.org/1999/xlink" width="52.053" height="70" viewBox="0 0 52.053 70">
  <defs>
    <linearGradient id="linear-gradient" x1="1" y1="0.5" x2="0" y2="0.5" gradientUnits="objectBoundingBox">
      <stop offset="0" stop-color="#b71c1c"/>
      <stop offset="0.254" stop-color="#d32f2f"/>
      <stop offset="0.633" stop-color="#ef5350"/>
      <stop offset="1" stop-color="#ef9a9a"/>
    </linearGradient>
  </defs>
  <path id="Stroke-1" d="M41.7,69.845a.9.9,0,0,1-.24-1.247,33.712,33.712,0,0,0,3.67-7.552c.1-.283.2-.576.3-.871l.187-.569.175-.554q.043-.136.083-.27l.155-.522.14-.493c.022-.08.044-.158.064-.235l.116-.441-7.783-5.778-6.47,2.16L33.987,55.4a4.8,4.8,0,0,1,1.3,4.183l-.033.169-.086.4-.173.781c-.913,4.026-1.865,6.677-3.087,8.6a.9.9,0,0,1-1.514-.964,22.083,22.083,0,0,0,2.436-6.311L33,61.569c.11-.451.22-.922.334-1.438l.164-.755a3.01,3.01,0,0,0-.688-2.612l-.1-.11-2.517-2.57L19.36,57.117l-.008.1c-.433,4.967-1.453,9.325-2.8,11.958l-.131.249a.9.9,0,1,1-1.578-.855c1.3-2.407,2.327-6.788,2.739-11.721L7.318,48.563l-.189-.183.041.935.048.978L7.275,51.3l.065,1.022.05.7A103.132,103.132,0,0,0,9.606,68.8a.9.9,0,0,1-.669,1.078.912.912,0,0,1-.205.024.894.894,0,0,1-.873-.693l-.072-.312-.141-.635-.137-.65-.134-.664-.13-.677-.125-.688L7,64.879l-.118-.707-.114-.715-.11-.721L6.5,61.644l-.149-1.1-.14-1.1L6.12,58.71l-.085-.733-.08-.73-.076-.725-.072-.72-.1-1.067-.062-.7-.058-.691-.079-1.016L5.44,51.34,5.4,50.7l-.053-.929-.044-.89-.034-.845-.024-.8-.011-.5-.006-.478,0-.451,0-.424.007-.4.011-.366.016-.335.007-.123,0-.176a5.807,5.807,0,0,1,.558-2.342l.1-.2,4.045-7.8L2.459,30.538A3.973,3.973,0,0,1,0,26.966l0-.158v-.792A2.5,2.5,0,0,1,2.607,23.49l.138,0H9.436l-.019-.24A49,49,0,0,1,9.4,15.2l.059-.625a26.43,26.43,0,0,1,1.422-6.551A13.087,13.087,0,0,1,13.8,3.294a.9.9,0,0,1,1.268,1.271c-2.056,2.051-3.34,5.482-3.817,10.2a47.032,47.032,0,0,0-.01,8.727h1.816l-.009-.117a39.992,39.992,0,0,1,.037-7.326l.059-.528a24.931,24.931,0,0,1,1.406-5.969,16.327,16.327,0,0,1,2.8-4.806,13.156,13.156,0,0,1,4.727-3.535A15.026,15.026,0,0,1,28.161,0c4.218,0,7.7,1.177,10.057,3.4a10.338,10.338,0,0,1,3.225,7.613,10.822,10.822,0,0,1-2.529,7.092,8.452,8.452,0,0,1-6.471,3.015,10.915,10.915,0,0,1-3.735-.627,8.687,8.687,0,0,1-2.888-1.716,7.6,7.6,0,0,1-2.523-5.7,6.451,6.451,0,0,1,1.5-4.237,5.673,5.673,0,0,1,4.439-1.949A6.609,6.609,0,0,1,33.02,7.97a4.866,4.866,0,0,1,1.963,2.767,4.4,4.4,0,0,1-.022,2.439,2.984,2.984,0,0,1-1.341,1.73,1.773,1.773,0,0,1-2.42-.649.9.9,0,0,1,1.508-.97l.034.052.051-.032a1.912,1.912,0,0,0,.488-1.979l-.031-.126c-.423-1.575-1.925-2.515-4.016-2.515a3.927,3.927,0,0,0-3.081,1.327,4.658,4.658,0,0,0-1.061,3.063c0,3.621,3.092,6.249,7.352,6.249,4.041,0,7.206-3.651,7.206-8.312a8.559,8.559,0,0,0-2.662-6.307C34.965,2.8,31.913,1.795,28.161,1.795A11.853,11.853,0,0,0,18.71,5.909c-2.024,2.365-3.3,5.669-3.789,9.819a37.835,37.835,0,0,0-.068,7.759h2.668a2.816,2.816,0,0,1,1.915.663,2.466,2.466,0,0,1,.8,1.791l0,.134v5.582a3.31,3.31,0,0,1-.107.881l-.039.129.077.093a4.8,4.8,0,0,1,.772,1.338l.06.177,1.486,4.781h20.4A6.187,6.187,0,0,1,46.208,40.3l.241.167.294.234.482.4a5.928,5.928,0,0,0,2.766-3.057c.577-1.569.207-3.414-1.1-5.484A.9.9,0,0,1,50.41,31.6c1.619,2.566,2.044,4.942,1.265,7.061a7.514,7.514,0,0,1-3.2,3.783l-.219.132.065.181a5.352,5.352,0,0,1,.284,1.479l0,.213,0,.07-.25,3.219L48.337,56.4a1,1,0,0,1-.011.141l-.079.363-.077.325-.089.355-.1.382-.111.406-.122.427-.132.445-.142.461-.15.474-.158.484-.166.49-.173.494a35.532,35.532,0,0,1-3.875,7.956.9.9,0,0,1-1.246.239ZM7.52,42.272a4.026,4.026,0,0,0-.455,1.717l0,.268-.01.23-.006.425,0,.546,0,.314L8.486,47.2l10.2,8.239L30.2,52.216l7.989-2.667a.9.9,0,0,1,.472-.157l7.97-2.66.179-2.311,0-.153A3.865,3.865,0,0,0,46.4,42.8l-.054-.1-.957-.785-.01-.008A5.227,5.227,0,0,0,43,40.856l-.115,0H21.824A.9.9,0,0,1,21,40.3l-.029-.078-1.682-5.41a3.352,3.352,0,0,0-.9-1.337l-6.457.3ZM40.65,50.62,46.544,55l.012-6.35ZM1.8,25.934l0,.082v.792a2.21,2.21,0,0,0,1.24,2.022l.111.05L11.4,32.3l.111.04,6.9-.314a1.506,1.506,0,0,0,.032-.258l0-.107V26.077c0-.521-.252-.766-.816-.792l-.1,0H14.162l-.063,0-.069,0H10.511l-.045,0-.05,0H2.745C2.151,25.283,1.832,25.5,1.8,25.934Zm11.739,3.083a.6.6,0,1,1,0-1.2H15.78a.6.6,0,1,1,0,1.2Z" fill="url(#linear-gradient)"/>
</svg>
