<svg id="Signe_trait_cancer" data-name="Signe/trait/cancer" xmlns="http://www.w3.org/2000/svg" xmlns:xlink="http://www.w3.org/1999/xlink" width="74.468" height="70" viewBox="0 0 74.468 70">
  <defs>
    <linearGradient id="linear-gradient" x1="1" y1="0.5" x2="0" y2="0.5" gradientUnits="objectBoundingBox">
      <stop offset="0" stop-color="#004d40"/>
      <stop offset="0.254" stop-color="#00796b"/>
      <stop offset="0.633" stop-color="#26a69a"/>
      <stop offset="1" stop-color="#80cbc4"/>
    </linearGradient>
  </defs>
  <path id="Fill-1" d="M37.519,70h0a.543.543,0,0,1-.066,0l-.105-.008-.113-.009-.1.008-.12.009a.523.523,0,0,1-.066,0,.617.617,0,0,1-.068,0c-3.345-.255-5.519-.97-6.647-2.187a3.55,3.55,0,0,1-.955-2.64,14.381,14.381,0,0,1,3.141-7.535c-1.6-3.928-5.88-15.815-6.415-23.537-2.363.969-7.565,3-8.15,3.234.049,1.02.161,1.953.291,3.033l.092.778c1.41,12.143,6.136,17.858,6.336,18.1a.7.7,0,0,1-.084.993.711.711,0,0,1-1-.084c-.212-.25-5.2-6.261-6.661-18.842l-.091-.773c-.112-.933-.218-1.814-.277-2.745a17.077,17.077,0,0,1-4.46.579H12a5.959,5.959,0,0,1-5.846-3.627C4.86,32.04,4.835,27.7,4.936,25.347a5.839,5.839,0,0,1-3.858-3.961A21.894,21.894,0,0,1,.241,11.53C1.64,3.166,10.667.2,11.051.076A1.577,1.577,0,0,1,12.728,2.61c-.162.184-3.931,4.576-.991,9.668a4.689,4.689,0,0,0,.32.447l.074.1,0,0a9.092,9.092,0,0,0,1.581-1.685A1.588,1.588,0,0,1,15,10.485a1.565,1.565,0,0,1,.407.054,1.585,1.585,0,0,1,1.162,1.367,13.637,13.637,0,0,1-4.348,10.731,33.87,33.87,0,0,0,.647,7.532c.365,1.909,1.183,5.283,2.559,6.422.327-.072.665-.158,1-.255a62.849,62.849,0,0,1,2.045-14.015c.938-3.551,2.589-8.437,5.123-11.549,1.568-1.926,3.2-3.018,4.72-3.158.223-.02.447-.03.664-.03a6.446,6.446,0,0,1,4.722,2.035,8.6,8.6,0,0,1,2.035,3.538.753.753,0,0,1,.023.121.7.7,0,0,1-.03.3.707.707,0,0,1-.153.258.743.743,0,0,1-.086.079c-.284.233-6.966,5.842-8.132,18.127a.769.769,0,0,1,.009.137c-.2,7.74,5.425,22.73,6.541,25.361a.7.7,0,0,1-.1.718,13.249,13.249,0,0,0-3.032,6.978,2.074,2.074,0,0,0,.582,1.58c.467.5,1.851,1.4,5.871,1.75,4.019-.347,5.4-1.245,5.872-1.75a2.07,2.07,0,0,0,.582-1.58,13.255,13.255,0,0,0-3.032-6.98.7.7,0,0,1,.1-.989c1.557-3.7,6.624-16.342,6.433-23.679,0-.117,0-.2,0-.266s0-.109,0-.188c-.859-13.041-7.919-18.974-8.219-19.22a.754.754,0,0,1-.084-.076.712.712,0,0,1-.155-.261.7.7,0,0,1-.031-.3.676.676,0,0,1,.024-.12,8.6,8.6,0,0,1,2.036-3.538A6.44,6.44,0,0,1,45.48,7.582c.218,0,.443.01.667.03,1.521.14,3.153,1.232,4.72,3.158,2.535,3.112,4.185,8,5.123,11.549a62.847,62.847,0,0,1,2.045,14.015c.333.1.671.182,1,.255,1.375-1.139,2.193-4.512,2.558-6.421a33.893,33.893,0,0,0,.648-7.532A13.622,13.622,0,0,1,57.9,11.906a1.585,1.585,0,0,1,1.163-1.367,1.563,1.563,0,0,1,.408-.054,1.588,1.588,0,0,1,1.287.655,9.092,9.092,0,0,0,1.582,1.685l.069-.09.008-.01a4.914,4.914,0,0,0,.32-.447c2.937-5.088-.828-9.481-.99-9.666A1.578,1.578,0,0,1,63.419.076C63.8.2,72.828,3.166,74.227,11.529a21.892,21.892,0,0,1-.838,9.857,5.839,5.839,0,0,1-3.858,3.961c.1,2.346.079,6.688-1.218,9.394a5.958,5.958,0,0,1-5.846,3.627h-.007A17.071,17.071,0,0,1,58,37.789c-.06.93-.165,1.808-.276,2.737l-.093.78C56.175,53.864,51.185,59.9,50.974,60.148a.71.71,0,0,1-1,.084.7.7,0,0,1-.084-.993c.2-.237,4.925-5.951,6.336-18.1l.093-.785c.13-1.078.242-2.01.29-3.027-2.6-1.02-6.106-2.4-8-3.172-.03,3.241-.916,7.634-2.631,13.058-1.41,4.458-3.033,8.489-3.874,10.494a14.39,14.39,0,0,1,3.08,7.457,3.545,3.545,0,0,1-.955,2.64c-1.126,1.216-3.3,1.932-6.646,2.187A.534.534,0,0,1,37.519,70ZM63.68,24.183c-.072,3.073-.79,9.677-2.994,12.679a15.986,15.986,0,0,0,1.776.1h.006a4.55,4.55,0,0,0,4.568-2.824c1.179-2.46,1.18-6.588,1.076-8.83A10.684,10.684,0,0,1,63.68,24.183Zm-52.892,0A10.684,10.684,0,0,1,6.356,25.3c-.1,2.24-.1,6.367,1.076,8.83A4.551,4.551,0,0,0,12,36.957h.006a15.989,15.989,0,0,0,1.777-.1C11.578,33.86,10.86,27.255,10.788,24.183Zm34.7-15.19c-3.621,0-5.024,3.441-5.268,4.131a23.1,23.1,0,0,1,4.422,5.784,33.167,33.167,0,0,1,3.935,13.711c1.81.755,6.606,2.638,8.033,3.2a57.6,57.6,0,0,0-2.347-14.468c-1.248-4.184-2.886-7.716-4.494-9.689-1.3-1.6-2.635-2.539-3.75-2.641C45.839,9,45.661,8.992,45.487,8.992Zm-16.51,0c-.172,0-.345.008-.527.024-1.114.1-2.445,1.04-3.749,2.641-1.607,1.974-3.245,5.505-4.493,9.689a57.6,57.6,0,0,0-2.347,14.468c1.237-.484,6.229-2.445,8.032-3.2a33.166,33.166,0,0,1,3.935-13.712,23.1,23.1,0,0,1,4.421-5.784C34.005,12.434,32.606,8.993,28.977,8.993Zm30.493,2.9a.155.155,0,0,0-.041.005.167.167,0,0,0-.124.145,12.162,12.162,0,0,0,3.921,9.573.709.709,0,0,1,.469.538c.228,1.212,3.38,1.776,5.438,1.776a.685.685,0,0,1,.139.013,4.473,4.473,0,0,0,2.761-2.96,20.524,20.524,0,0,0,.8-9.225C71.57,4.226,63.335,1.53,62.985,1.419a.168.168,0,0,0-.052-.008.161.161,0,0,0-.137.075.165.165,0,0,0,.015.2C63,1.9,67.4,7.028,63.958,12.982a5.7,5.7,0,0,1-.422.6,3.409,3.409,0,0,0-.36.523.709.709,0,0,1-1.017.321,9.474,9.474,0,0,1-2.554-2.463A.17.17,0,0,0,59.47,11.895ZM11.535,1.41a.177.177,0,0,0-.05.007c-.35.112-8.591,2.831-9.849,10.344a20.53,20.53,0,0,0,.8,9.224A4.473,4.473,0,0,0,5.2,23.945a.685.685,0,0,1,.139-.013c2.059,0,5.211-.564,5.439-1.776a.709.709,0,0,1,.468-.538,12.164,12.164,0,0,0,3.921-9.575.167.167,0,0,0-.123-.143A.16.16,0,0,0,15,11.895a.169.169,0,0,0-.136.068,9.469,9.469,0,0,1-2.554,2.464.71.71,0,0,1-1.017-.321,3.352,3.352,0,0,0-.359-.523,5.7,5.7,0,0,1-.422-.6c-3.435-5.948.961-11.082,1.15-11.3a.166.166,0,0,0-.125-.274ZM38.442,53.782H35.529a.705.705,0,1,1,0-1.41h2.913a.705.705,0,1,1,0,1.41Zm1.165-7.051H34.364a.705.705,0,1,1,0-1.41h5.243a.705.705,0,1,1,0,1.41Zm1.662-6.581H33.2a.705.705,0,1,1,0-1.41h8.07a.705.705,0,1,1,0,1.41Zm1.251-6.111H31.948a.705.705,0,1,1,0-1.41H42.52a.705.705,0,1,1,0,1.41Zm.328-6.581H31.62a.705.705,0,1,1,0-1.41H42.848a.705.705,0,1,1,0,1.41Zm-3.161-5.846a1.683,1.683,0,1,1,1.689-1.683A1.688,1.688,0,0,1,39.687,21.611Zm0-1.956a.273.273,0,1,0,.273.273A.274.274,0,0,0,39.687,19.655Zm-5.236,1.956a1.683,1.683,0,1,1,1.69-1.683A1.688,1.688,0,0,1,34.452,21.611Zm0-1.956a.273.273,0,1,0,.274.273A.273.273,0,0,0,34.452,19.655Z" transform="translate(0 0)" fill="url(#linear-gradient)"/>
</svg>
