<?xml version="1.0" encoding="UTF-8"?>
<svg width="53px" height="70px" viewBox="0 0 53 70" version="1.1" xmlns="http://www.w3.org/2000/svg" xmlns:xlink="http://www.w3.org/1999/xlink">
    <title>signs-light/capricorn</title>
    <defs>
        <linearGradient x1="100%" y1="53.5623848%" x2="0%" y2="53.5623848%" id="linearGradient-1">
            <stop stop-color="#AD1457" offset="0%"></stop>
            <stop stop-color="#C2185B" offset="25.3807957%"></stop>
            <stop stop-color="#EC407A" offset="64.1362544%"></stop>
            <stop stop-color="#F48FB1" offset="100%"></stop>
        </linearGradient>
    </defs>
    <g id="Page-1" stroke="none" stroke-width="1" fill="none" fill-rule="evenodd">
        <g id="Artboard" transform="translate(-717.000000, -187.000000)" fill="url(#linearGradient-1)">
            <g id="signs-light/capricorn" transform="translate(717.000000, 187.000000)">
                <path d="M9.44091269,32.1688867 C9.26061232,32.1688867 9.08077303,32.0992693 8.94520193,31.9609505 C8.67867091,31.6893509 8.68466553,31.254242 8.95857462,30.9895126 L11.9840243,28.064665 C12.2574722,27.7999356 12.6960033,27.8058897 12.9620732,28.0774893 C13.2286042,28.3495468 13.2226096,28.7841977 12.9491616,29.0489271 L9.92325083,31.9742327 C9.78906305,32.1043074 9.6147573,32.1688867 9.44091269,32.1688867 M31.9955227,48.6072998 C31.9374208,48.6072998 31.8779355,48.5999717 31.8189113,48.5843993 C31.4495492,48.4877594 31.2291308,48.1121918 31.3259673,47.7453263 C34.4505591,35.961204 27.1140396,33.1494846 26.8000126,33.0358983 C26.443562,32.9062817 26.2558835,32.5146838 26.3831544,32.1592685 C26.5104253,31.8038533 26.9005381,31.6156114 27.2588333,31.7397319 C27.3478307,31.7699606 36.1470428,34.9595376 32.6641559,48.0947874 C32.5825365,48.4034857 32.3021717,48.6072998 31.9955227,48.6072998 M36.0409838,50.870782 C35.9515253,50.870782 35.8611446,50.8533776 35.7739917,50.8171949 C35.4216912,50.6706319 35.2552246,50.2684997 35.402785,49.9181226 C38.0842345,43.5577469 40.6577804,31.9032413 27.7688389,25.3124869 C27.4289889,25.1389014 27.2957234,24.7248609 27.4704902,24.387308 C27.6457182,24.0502132 28.0625764,23.9178485 28.4019654,24.090976 C34.358795,27.1371961 43.3549082,34.6119085 36.6791826,50.4489554 C36.5680512,50.7123108 36.3112038,50.870782 36.0409838,50.870782 M29.7410762,48.7520308 C33.6966177,51.1208551 37.3538104,53.1035775 38.6809319,51.4176451 C39.8812437,49.8943061 41.2341883,48.8692811 42.8988543,48.3073037 C42.711637,48.1323442 42.6304787,47.8602866 42.7125592,47.6005953 C42.8568918,47.144418 46.1571728,36.3262375 38.2317949,27.4513905 C30.4276932,18.7116563 18.572597,21.7510063 18.170956,21.8581804 C17.8910523,21.9419961 17.5779476,21.8421501 17.4031806,21.591161 C15.5199408,18.8875319 15.0426751,15.4620801 16.1867295,12.8647091 C17.6010038,9.6536056 20.894368,7.24356049 24.5764615,6.7246359 C31.3232005,5.77930464 34.5437067,12.664559 34.6778944,12.958143 C34.7069454,13.0227223 34.7705808,13.0598211 34.8314495,13.055241 C34.9047686,13.0502029 34.9628705,13.004402 34.9822378,12.9407387 C36.2069893,8.83331092 34.5842858,6.48097494 32.8352337,4.72130306 C28.9419443,0.803949201 21.0885021,0.209911086 15.6859463,3.42513664 C13.3240574,4.8307673 5.99122679,10.3566499 10.7809458,22.4563406 C10.887927,22.7256501 10.8127635,23.0325164 10.5937285,23.2235063 L5.93773614,27.2883392 C4.66917767,28.3962638 4.10752583,30.1018905 4.47227674,31.74019 L4.78077024,33.1261262 C4.95922612,33.9267265 4.63505432,34.7451892 3.95581527,35.2114427 L2.96992722,35.8879225 C1.32555081,37.0159995 0.885636303,39.2803977 1.99003381,40.9347274 C2.43594295,41.603421 3.17927857,42.0023472 3.97933271,42.0023472 C4.32241068,42.0023472 4.65672726,41.9299817 4.97352103,41.7870828 L19.5303563,35.2306791 C19.5303563,35.2306791 19.5308174,35.2306791 19.5312786,35.2306791 L21.6104971,34.2972561 C23.4826699,33.4366565 24.559861,31.9618665 24.559861,30.2530336 C24.559861,28.4122941 23.051978,26.9146036 21.1987113,26.9146036 C20.8164376,26.9146036 20.5070219,26.6068213 20.5070219,26.2275895 C20.5070219,25.8478998 20.8164376,25.5405755 21.1987113,25.5405755 C23.8146809,25.5405755 25.9432399,27.6547467 25.9432399,30.2530336 C25.9432399,32.5197219 24.5736948,34.4493152 22.1859827,35.5467056 L20.9478586,36.1022709 C23.1027019,38.7802515 23.5167933,41.84754 22.154165,45.0586435 C24.7945743,45.9485556 27.812646,47.4105214 29.7410762,48.7520308 M16.5487136,45.5125307 C10.1824038,45.5125307 5.89439027,49.8219406 4.46858772,54.0933357 C2.97868862,58.5580107 4.37959034,63.0519984 8.12439711,65.8224968 C10.6389189,67.6824727 13.4872961,68.625972 16.590215,68.625972 C24.037866,68.625972 33.0579577,62.1959789 35.6757718,60.1995162 C32.1730563,57.9983233 26.0382319,54.5701234 23.3517101,54.5701234 C18.3475673,54.5701234 18.094409,57.2939049 18.094409,57.8398521 C18.094409,59.9691375 19.5732411,61.808961 19.5879971,61.8272814 C19.8268606,62.1208654 19.7839758,62.5523102 19.4897772,62.791849 C19.1965009,63.0318459 18.7630422,62.9915411 18.5200286,62.7011632 C18.5020446,62.6791787 16.7110301,60.5086725 16.7110301,57.8398521 C16.7110301,55.5946903 18.4554709,53.1960954 23.3517101,53.1960954 C27.2076482,53.1960954 35.9773484,58.7526647 37.1366199,59.4983039 C37.2297674,59.5358607 37.3159981,59.5940279 37.3874726,59.6728055 C37.5004486,59.796468 37.5599339,59.9489851 37.5673119,60.1033343 C38.6122241,65.5623474 46.975672,65.770742 47.9297423,65.7762379 C48.0205842,65.77578 48.0897531,65.7116587 48.09667,65.6273846 C48.4388258,61.2753801 46.9350928,58.9702191 45.6125826,57.8027533 C45.4373546,57.6479461 45.3529685,57.4152774 45.3889364,57.1848987 C45.424443,56.95452 45.5752314,56.757576 45.7896551,56.66231 C50.4069128,54.6095122 51.5565007,50.2126226 51.6030745,50.0262128 C51.6136803,49.9840759 51.6063023,49.939191 51.5837071,49.9020922 C51.5606508,49.8659095 51.5242218,49.839803 51.4813371,49.8301848 C45.4152205,48.467607 42.2417493,49.1271404 39.7701123,52.2645044 C37.5760733,55.0505752 32.8241667,52.2035892 29.006502,49.9162905 C28.9926682,49.9080463 28.9792956,49.8993442 28.9659229,49.890184 C26.9664792,48.4950876 23.7067773,46.9557182 21.0271724,46.1409195 C20.2414131,45.9774102 17.9823553,45.5125307 16.5487136,45.5125307 M16.590215,70 C13.1829527,70 10.0565163,68.9648989 7.29805876,66.9244676 C3.0589246,63.7884774 1.47172784,58.7064057 3.15576112,53.6609749 C4.73742436,48.9210362 9.49255882,44.1385027 16.5487136,44.1385027 C17.8020549,44.1385027 19.4856271,44.4293387 20.8062929,44.693152 C22.1071301,41.7756325 21.7156339,39.0871177 19.6410267,36.6898969 L5.54531765,43.0383643 C5.04776236,43.2627889 4.52115612,43.3763752 3.97933271,43.3763752 C2.71446324,43.3763752 1.53951341,42.7475284 0.836756919,41.6936489 C-0.680809763,39.4200905 -0.0767343001,36.3079171 2.18370686,34.7570974 L3.16959491,34.0806176 C3.38401865,33.9340547 3.48592756,33.6757374 3.43013128,33.4229162 L3.12117665,32.03698 C2.64806105,29.9095266 3.37710175,27.6945935 5.02470605,26.2564441 L7.56597316,24.0378469 C7.21782279,23.2867116 6.08206868,20.6691882 5.51995571,17.3559487 C4.67701681,12.3897534 5.52410584,8.0922518 7.9699198,4.92740727 C8.20278854,4.62649514 8.63716955,4.56970198 8.94012955,4.80099669 C9.2426284,5.0318334 9.29980806,5.4632782 9.06740041,5.76419033 C4.34270024,11.877241 7.66788204,20.7841486 8.6560757,23.0856455 L9.32148098,22.5053476 C8.16451509,19.3382131 4.99427171,8.18660173 14.9748895,2.24667861 C20.8828398,-1.26900107 29.5132798,-0.578322984 33.8197384,3.75627739 C35.5844688,5.53152158 37.7628295,8.45545321 36.3084371,13.3305046 C36.1267533,13.9428631 35.5724795,14.38301 34.9296694,14.4256049 C34.296543,14.47736 33.683245,14.1109525 33.416714,13.5233265 C33.3009713,13.2691314 30.5019346,7.27791119 24.7701346,8.08538166 C21.5528563,8.53835291 18.6809617,10.6309975 17.4539045,13.4152364 C16.5657753,15.4323094 16.904242,18.1918157 18.2825485,20.4168251 C20.7435797,19.8649238 31.6602839,18.0214362 39.2665623,26.5399519 C47.6701282,35.9497538 44.215831,47.4288418 44.0346084,48.0059336 C46.0916929,47.5946412 48.5974532,47.7737229 51.7866027,48.4900495 C52.189166,48.5802773 52.5446944,48.8321824 52.7614238,49.1816435 C52.9786143,49.5324787 53.0450164,49.9607174 52.9454131,50.3587275 C52.8951504,50.5584196 51.7294231,55.0203466 47.2352861,57.4807727 C48.5697856,58.9972417 49.8046819,61.5533918 49.4754377,65.7350171 C49.4118023,66.5356176 48.7546972,67.1438535 47.9468039,67.150266 C46.9069641,67.1443121 38.4093285,66.9226351 36.4661423,61.3280512 C33.6099259,63.5022215 24.3957,70 16.590215,70" id="Fill-1"></path>
            </g>
        </g>
    </g>
</svg>