<svg xmlns="http://www.w3.org/2000/svg" xmlns:xlink="http://www.w3.org/1999/xlink" width="60.667" height="70.001" viewBox="0 0 60.667 70.001">
  <defs>
    <linearGradient id="linear-gradient" x1="1" y1="0.5" x2="0" y2="0.5" gradientUnits="objectBoundingBox">
      <stop offset="0" stop-color="#ff6f00"/>
      <stop offset="0.254" stop-color="#ffa000"/>
      <stop offset="0.633" stop-color="#ffca28"/>
      <stop offset="1" stop-color="#ffe082"/>
    </linearGradient>
  </defs>
  <g id="Signe_trait_lion" data-name="Signe/trait/lion" transform="translate(0)">
    <path id="Fill-3" d="M32.657,70c-2.206,0-4.4-.074-6.343-.14l-.058,0H18.3l-4.664,0-2.2,0a1.681,1.681,0,0,1-1.606-1.707c0-4,3.289-6.369,4.7-7.2-.091-2.713-1.5-5.809-2.867-8.8l0,0C9.679,47.77,7.621,43.25,9.716,39.785A12.121,12.121,0,0,1,3,36.777C.979,34.812-.03,31.891,0,28.1c.016-1.552,1.726-1.613,2.974-1.658h0c.392-.014.8-.028,1.184-.071A5.533,5.533,0,0,1,1.1,22.275a9.381,9.381,0,0,1,.565-5.255A8.815,8.815,0,0,1,4.8,12.949,8.711,8.711,0,0,1,5.886,8.317,9.47,9.47,0,0,1,9.313,4.8a9.59,9.59,0,0,1,4.923-1.4,8.678,8.678,0,0,1,4.232,1.1A10.257,10.257,0,0,1,22.23,1.225,11.509,11.509,0,0,1,27.286,0h.086A11.741,11.741,0,0,1,32.5,1.15,10.267,10.267,0,0,1,36.35,4.391a9.28,9.28,0,0,1,3.22-.577,10.2,10.2,0,0,1,7.08,3A10.693,10.693,0,0,1,49.607,11.8a9.483,9.483,0,0,1-.237,5.539,13.216,13.216,0,0,1,2.066,7.039,14.165,14.165,0,0,1-2.054,7.236,15.292,15.292,0,0,1-13,7.562H36.34a16.232,16.232,0,0,0,4.8,4C44.37,45.259,48.385,47.852,51,54.017c.106-.037.211-.078.28-.1l.007,0a2.773,2.773,0,0,1,.6-.184,5.364,5.364,0,0,0,3.341-3.416c.343-1.43-.22-3.035-1.628-4.642a.725.725,0,0,1-.063-.083C50.8,41.352,47.7,36.556,49.193,33.456a.859.859,0,0,1,.05-.088,3.09,3.09,0,0,1,2.632-1.336,3.9,3.9,0,0,1,.415.022,3.843,3.843,0,0,1,2.915,1.876c.089,0,.177-.005.259-.005.933,0,3.18.237,3.9,2.428,1.79,6.47,1.385,8.136.833,8.864a1.371,1.371,0,0,1-1.113.555H59.06l-.053,0c-1.991-.212-5.965-3.374-6.739-6.576a4.38,4.38,0,0,1,1.63-4.641,2.414,2.414,0,0,0-1.762-1.06,2.367,2.367,0,0,0-.256-.014,1.7,1.7,0,0,0-1.414.657c-1.081,2.38,1.876,6.948,4.252,10.619,2.153,2.48,2.228,4.574,1.912,5.894a6.825,6.825,0,0,1-4.323,4.469.724.724,0,0,1-.252.05c-.051.016-.114.04-.18.066l-.073.028c-.111.044-.2.078-.29.109,1.24,3.885,1,7.05-.714,9.407-1.478,2.034-3.949,3.431-7.555,4.272A46.934,46.934,0,0,1,32.657,70Zm6.886-19.925a.725.725,0,0,1,0,1.45A16.568,16.568,0,0,0,27.02,57.408a.673.673,0,0,1-.061.063V68.558c1.577.052,3.423.109,5.363.109,5.914,0,14.124-.481,17.132-4.64,1.514-2.094,1.611-5.05.289-8.786a.476.476,0,0,1-.016-.049.685.685,0,0,1-.044-.092C47.245,49,43.5,46.571,40.2,44.426c-2.419-1.572-4.7-3.056-5.951-5.718a.734.734,0,0,1,.062-.727.712.712,0,0,1,.658-.3c.417.042.841.063,1.261.063a13.8,13.8,0,0,0,11.739-6.882,12.058,12.058,0,0,0-.176-13.085.729.729,0,0,1-.071-.673,8.587,8.587,0,0,0-2.244-9.329,8.885,8.885,0,0,0-6.093-2.611,7.78,7.78,0,0,0-3.174.688.715.715,0,0,1-.9-.278,9.229,9.229,0,0,0-7.946-4.235l-.2,0a9.227,9.227,0,0,0-7.979,4.421.719.719,0,0,1-.46.338.689.689,0,0,1-.159.019.707.707,0,0,1-.4-.125A7.162,7.162,0,0,0,14.115,4.75a8.1,8.1,0,0,0-4.175,1.2,7.585,7.585,0,0,0-3.776,7.242.726.726,0,0,1-.361.7c-2.436,1.395-3.991,5.082-3.4,8.053a4.13,4.13,0,0,0,3.535,3.482c.115-.117.275-.275.479-.476.227-.224.607-.6.744-.754,1.75-4.94,6.759-8.187,12.761-8.271l.3,0a14.6,14.6,0,0,1,7.812,2.159,11.714,11.714,0,0,1,4.787,5.775.727.727,0,0,1-.415.936.7.7,0,0,1-.256.048.724.724,0,0,1-.671-.467c-1.607-4.253-6.05-7-11.32-7h-.212c-5.431.076-9.93,2.983-11.463,7.405-.092.235-.211.37-1.058,1.207-.256.252-.535.528-.615.622a.759.759,0,0,1-.069.086c-.948,1.061-2.537,1.117-3.814,1.163a4.415,4.415,0,0,0-1.595.215c-.017,3.455.822,5.964,2.567,7.67,2.711,2.651,7.42,2.991,11.219,2.991,1.573,0,3.163-.064,4.7-.127h0c1.453-.059,2.956-.121,4.337-.121.88,0,1.648.024,2.345.075a5.6,5.6,0,0,0,.646.038,4.744,4.744,0,0,0,3.921-2.087,6.375,6.375,0,0,0,.7-6.122,4.01,4.01,0,0,0-3.656-2.3.725.725,0,0,1,.036-1.449H28.2a5.465,5.465,0,0,1,4.87,3.117,7.9,7.9,0,0,1-.825,7.591,6.116,6.116,0,0,1-5.093,2.7,6.75,6.75,0,0,1-.777-.046c-.644-.046-1.36-.069-2.189-.069-1.327,0-2.744.057-4.244.118l-.057,0H19.87c-1.557.063-3.167.128-4.766.128-1.468,0-2.741-.056-3.891-.17-2.3,2.858-.383,7.1,1.651,11.585,1.5,3.308,3.05,6.728,3,9.874a.726.726,0,0,1-.381.627c-1.013.544-4.316,2.6-4.316,6.167a.294.294,0,0,0,.168.262h3.855c.66-2.6,2.72-5.37,4.592-6.171V46.991a.718.718,0,1,1,1.436,0v15.9a.724.724,0,0,1-.583.712,4.613,4.613,0,0,0-2.114,1.632,9.758,9.758,0,0,0-1.841,3.3h8.847V49.379a.718.718,0,1,1,1.436,0v5.988A17.7,17.7,0,0,1,39.542,50.075ZM55.779,35.334c-.082,0-.166,0-.248.007A3.02,3.02,0,0,0,54.1,38.7a7.756,7.756,0,0,0,2.323,3.555A7.227,7.227,0,0,0,59.184,44c.109-.179.577-1.371-1.019-7.311A2.308,2.308,0,0,0,55.779,35.334Zm-15-4.667a.7.7,0,0,1-.2-.03.728.728,0,0,1-.477-.9,17.187,17.187,0,0,0,.4-5.663A12.223,12.223,0,0,0,35,14.669a.735.735,0,0,1-.218-1,.706.706,0,0,1,.6-.335.7.7,0,0,1,.379.113,13.187,13.187,0,0,1,4.606,5A14.791,14.791,0,0,1,41.919,23.9a18.81,18.81,0,0,1-.461,6.253A.716.716,0,0,1,40.778,30.667ZM17.273,26H13.394a.669.669,0,1,1,0-1.333h3.879a.669.669,0,1,1,0,1.333ZM32,14.667a2.1,2.1,0,0,1-1.072-.289A1.907,1.907,0,0,1,30,12.667a1.909,1.909,0,0,1,.929-1.711,2.13,2.13,0,0,1,2.142,0A1.909,1.909,0,0,1,34,12.678a1.886,1.886,0,0,1-.928,1.7A2.1,2.1,0,0,1,32,14.667ZM31.666,12a.4.4,0,0,0-.209.056.274.274,0,0,0-.124.269v.016a.27.27,0,0,0,.124.269.42.42,0,0,0,.42,0A.269.269,0,0,0,32,12.342c0-.181-.061-.246-.124-.286A.4.4,0,0,0,31.666,12Z" transform="translate(0 0)" fill="url(#linear-gradient)"/>
  </g>
</svg>
