<?xml version="1.0" encoding="UTF-8"?>
<svg width="75px" height="70px" viewBox="0 0 75 70" version="1.1" xmlns="http://www.w3.org/2000/svg" xmlns:xlink="http://www.w3.org/1999/xlink">
    <title>signs-light/libra</title>
    <defs>
        <linearGradient x1="100%" y1="50%" x2="0%" y2="50%" id="linearGradient-1">
            <stop stop-color="#0D47A1" offset="0%"></stop>
            <stop stop-color="#1976D2" offset="25.3807957%"></stop>
            <stop stop-color="#42A5F5" offset="63.2672991%"></stop>
            <stop stop-color="#90CAF9" offset="100%"></stop>
        </linearGradient>
    </defs>
    <g id="Page-1" stroke="none" stroke-width="1" fill="none" fill-rule="evenodd">
        <g id="Artboard" transform="translate(-508.000000, -187.000000)" fill="url(#linearGradient-1)">
            <g id="signs-light/libra" transform="translate(508.000000, 187.000000)">
                <path d="M1.48752893,43.74573 C1.48752893,48.6365395 6.34976516,54.5431362 12.3876451,54.5431362 C18.425525,54.5431362 23.2877612,48.6365395 23.2877612,43.74573 C23.2877612,43.6072136 23.1608254,43.4755738 23.1137203,43.4755738 L1.66206566,43.4755738 C1.61446473,43.4755738 1.48752893,43.6072136 1.48752893,43.74573 L1.48752893,43.74573 Z M12.3876451,56.0167155 C9.18251608,56.0167155 6.06316792,54.5819405 3.60378675,51.9751788 C1.34720537,49.5840509 0,46.5072175 0,43.74573 C0,42.8006745 0.761118969,42.0019946 1.66206566,42.0019946 L23.1137203,42.0019946 C24.014667,42.0019946 24.7752902,42.8006745 24.7752902,43.74573 C24.7752902,46.5072175 23.4285806,49.5840509 21.1719993,51.9751788 C18.7126181,54.5819405 15.5927741,56.0167155 12.3876451,56.0167155 L12.3876451,56.0167155 Z M51.048522,43.74573 C51.048522,48.6365395 55.9107582,54.5431362 61.9486381,54.5431362 C67.986518,54.5431362 72.8487543,48.6365395 72.8487543,43.74573 C72.8487543,43.6072136 72.7223143,43.4755738 72.6747134,43.4755738 L51.2230587,43.4755738 C51.1754578,43.4755738 51.048522,43.6072136 51.048522,43.74573 L51.048522,43.74573 Z M61.9486381,56.0167155 C58.7435091,56.0167155 55.6241609,54.5819405 53.1647798,51.9751788 C50.9081984,49.5840509 49.560993,46.5072175 49.560993,43.74573 C49.560993,42.8006745 50.322112,42.0019946 51.2230587,42.0019946 L72.6747134,42.0019946 C73.5756601,42.0019946 74.3362832,42.8006745 74.3362832,43.74573 C74.3362832,46.5072175 72.9895737,49.5840509 70.7329923,51.9751788 C68.2736111,54.5819405 65.1537671,56.0167155 61.9486381,56.0167155 L61.9486381,56.0167155 Z M12.6549044,58.70698 C9.29060985,58.70698 6.35224437,57.7398208 3.67022971,55.7499976 C3.47536342,55.6055869 3.37222808,55.3835676 3.37272215,55.1595836 C3.37272215,55.0063313 3.42082069,54.8511143 3.52098098,54.7189834 C3.76791078,54.3933224 4.23350733,54.3275025 4.56225123,54.5711342 C6.97700652,56.3625154 9.62431217,57.2334007 12.6549044,57.2334007 C14.9575992,57.2334007 17.3039282,56.5118381 18.9322765,55.3035031 C19.2605246,55.0598714 19.726617,55.1256912 19.9735468,55.4513522 C20.0732112,55.5839744 20.1218056,55.738209 20.1218056,55.8919524 C20.1222997,56.1164277 20.0191643,56.3379557 19.8238022,56.4828577 C17.9475324,57.8758813 15.2675011,58.70698 12.6549044,58.70698 L12.6549044,58.70698 Z M62.2163933,58.70698 C58.8516029,58.70698 55.9132374,57.7398208 53.2312227,55.7499976 C53.0363564,55.6055869 52.9332211,55.3835676 52.9337152,55.1595836 C52.9337152,55.0063313 52.9823096,54.8511143 53.081974,54.7189834 C53.3289038,54.3933224 53.7945004,54.3275025 54.1232443,54.5711342 C56.5379995,56.3625154 59.1853052,57.2334007 62.2163933,57.2334007 C64.5185923,57.2334007 66.8649212,56.5118381 68.4932696,55.3035031 C68.8220134,55.0598714 69.2881058,55.1256912 69.5345398,55.4513522 C69.6347001,55.5839744 69.6827986,55.738209 69.6827986,55.8919524 C69.6832927,56.1164277 69.5801574,56.3379557 69.3852911,56.4828577 C67.5085254,57.8758813 64.8284941,58.70698 62.2163933,58.70698 L62.2163933,58.70698 Z M32.5382078,15.4775684 L41.7574163,15.4775684 L37.315159,2.21289937 C37.2675581,2.06996218 37.0295535,2.07290934 36.9839359,2.20847863 L32.5382078,15.4775684 Z M38.8959064,16.9511477 C39.7472688,17.2031297 40.5188005,17.6398003 41.1638922,18.2125315 C41.3577668,17.8117179 41.4921403,17.3873271 41.5620541,16.9511477 L38.8959064,16.9511477 Z M32.6686145,16.9511477 C32.7429909,17.4266226 32.8942231,17.8799938 33.1203275,18.3078229 C33.7857487,17.6874461 34.5949645,17.2168831 35.4924403,16.9511477 L32.6686145,16.9511477 Z M10.4186526,24.0734473 C10.4186526,25.1570192 11.3086908,26.0382196 12.4020245,26.0382196 C13.4958541,26.0382196 14.3853964,25.1570192 14.3853964,24.0734473 C14.3853964,23.904968 14.364571,23.7409096 14.3234161,23.5822542 L10.480633,23.5822542 C10.439478,23.7409096 10.4186526,23.9054592 10.4186526,24.0734473 L10.4186526,24.0734473 Z M59.9508868,24.0734473 C59.9508868,25.1570192 60.8409249,26.0382196 61.9342587,26.0382196 C63.0280883,26.0382196 63.9176306,25.1570192 63.9176306,24.0734473 C63.9176306,23.904968 63.8968052,23.7409096 63.8556502,23.5822542 L60.0128671,23.5822542 C59.9717122,23.7409096 59.9508868,23.904968 59.9508868,24.0734473 L59.9508868,24.0734473 Z M37.1941733,18.1791303 C34.7338005,18.1791303 32.7315866,20.1620768 32.7315866,22.599868 C32.7315866,25.0376593 34.7338005,27.0206057 37.1941733,27.0206057 C39.5013307,27.0206057 41.4053677,25.2768703 41.6339514,23.0502921 C41.6151093,22.9849634 41.6046966,22.9166876 41.6046966,22.8454646 C41.6046966,22.7496819 41.6230428,22.65832 41.6567601,22.574326 C41.6428765,20.1483234 39.6466127,18.1791303 37.1941733,18.1791303 L37.1941733,18.1791303 Z M35.4096345,37.5812569 L39.2132459,37.5812569 L40.7409382,27.3300574 C39.749748,28.0609527 38.5220408,28.494185 37.1941733,28.494185 C35.9818373,28.494185 34.8532987,28.1331581 33.9116928,27.5142548 L35.4096345,37.5812569 Z M6.26051342,39.0548361 L18.5435356,39.0548361 L13.1304179,27.4356639 C12.6608546,27.5353761 12.1436903,27.5353761 11.6736312,27.4356639 L6.26051342,39.0548361 Z M55.7927476,39.0548361 L68.0757698,39.0548361 L62.662652,27.4356639 C62.1930887,27.5353761 61.6759245,27.5353761 61.2058653,27.4356639 L55.7927476,39.0548361 Z M31.8063436,65.0880692 L42.5874574,65.0880692 L39.6099203,39.0548361 L35.0288271,39.0548361 L31.8063436,65.0880692 Z M49.7920559,66.5616485 L25.306338,66.5616485 C24.8952842,66.5616485 24.5625735,66.2315667 24.5625735,65.8248588 C24.5625735,65.418151 24.8952842,65.0880692 25.306338,65.0880692 L30.3079061,65.0880692 L33.557661,38.8347816 C33.5973284,38.5007703 33.7396353,38.1898451 33.9592938,37.9413014 L32.1410376,25.7312239 C32.13955,25.7214 32.1380625,25.7115762 32.1370708,25.7032259 C31.7374214,25.0666397 31.4572701,24.3494978 31.3268634,23.5822542 L15.8382164,23.5822542 C15.861521,23.7433655 15.8729254,23.907424 15.8729254,24.0734473 C15.8729254,25.1963146 15.3265064,26.1958926 14.4835733,26.8236373 L20.1822967,39.0548361 L22.8578654,39.0548361 C23.2684234,39.0548361 23.6016298,39.3849179 23.6016298,39.7916257 C23.6016298,40.1983336 23.2684234,40.5284154 22.8578654,40.5284154 L2.04436059,40.5284154 C1.63330676,40.5284154 1.30059613,40.1983336 1.30059613,39.7916257 C1.30059613,39.3849179 1.63330676,39.0548361 2.04436059,39.0548361 L4.62224823,39.0548361 L10.3204757,26.8236373 C9.47754265,26.1958926 8.93112369,25.1963146 8.93112369,24.0734473 C8.93112369,23.907424 8.94302392,23.7433655 8.96632854,23.5822542 L8.18735923,23.5822542 C7.77680124,23.5822542 7.44359476,23.2521724 7.44359476,22.8454646 C7.44359476,22.4387567 7.77680124,22.108675 8.18735923,22.108675 L31.264883,22.108675 C31.3432262,21.167549 31.6461863,20.2883134 32.1202122,19.524017 C31.5633805,18.6914447 31.2381075,17.7729137 31.151335,16.7875804 C30.9891943,16.5282304 30.904901,16.2349881 30.904901,15.9368339 C30.904901,15.7649164 30.9321724,15.5925076 30.9891943,15.423046 L35.5717751,1.74430117 C35.7973837,1.07185785 36.431071,0.619469027 37.1495475,0.619469027 C37.8665364,0.619469027 38.5002237,1.07333143 38.726824,1.74872191 L43.3099006,15.433361 C43.3669226,15.603805 43.3941939,15.7781786 43.3941939,15.9515697 C43.3936981,16.3027728 43.2796542,16.6475903 43.0659459,16.9329735 C42.9628105,17.8082796 42.6658006,18.6531317 42.1962373,19.4105514 C42.7114181,20.2008811 43.0411537,21.1203945 43.1239595,22.108675 L66.148924,22.108675 C66.5599778,22.108675 66.8926884,22.4387567 66.8926884,22.8454646 C66.8926884,23.2521724 66.5599778,23.5822542 66.148924,23.5822542 L65.3704505,23.5822542 C65.3937551,23.7433655 65.4051595,23.907424 65.4051595,24.0734473 C65.4051595,25.1963146 64.8587405,26.1958926 64.0158075,26.8236373 L69.7145308,39.0548361 L72.2919226,39.0548361 C72.7029764,39.0548361 73.0356871,39.3849179 73.0356871,39.7916257 C73.0356871,40.1983336 72.7029764,40.5284154 72.2919226,40.5284154 L51.4789137,40.5284154 C51.0678598,40.5284154 50.7351492,40.1983336 50.7351492,39.7916257 C50.7351492,39.3849179 51.0678598,39.0548361 51.4789137,39.0548361 L54.1544824,39.0548361 L59.8527098,26.8236373 C59.0097768,26.1958926 58.4633578,25.1963146 58.4633578,24.0734473 C58.4633578,23.907424 58.4752581,23.7433655 58.4985627,23.5822542 L43.0619791,23.5822542 C42.9761983,24.0847447 42.8269496,24.5651315 42.6216706,25.0155556 C42.5899366,25.1683166 42.5046516,25.583866 42.4823387,25.7336799 L40.6670576,37.9152682 C40.8921703,38.1701974 41.041419,38.494876 41.082574,38.8396936 L44.0849032,65.0880692 L49.7920559,65.0880692 C50.2031097,65.0880692 50.5358203,65.418151 50.5358203,65.8248588 C50.5358203,66.2315667 50.2031097,66.5616485 49.7920559,66.5616485 L49.7920559,66.5616485 Z M54.6894969,70 L18.5727904,70 C18.1617365,70 17.8290259,69.6699183 17.8290259,69.2632104 C17.8290259,68.8565025 18.1617365,68.5264208 18.5727904,68.5264208 L54.6894969,68.5264208 C55.1005508,68.5264208 55.4332614,68.8565025 55.4332614,69.2632104 C55.4332614,69.6699183 55.1005508,70 54.6894969,70 L54.6894969,70 Z" id="Fill-1"></path>
            </g>
        </g>
    </g>
</svg>