<?xml version="1.0" encoding="UTF-8"?>
<svg width="72px" height="70px" viewBox="0 0 72 70" version="1.1" xmlns="http://www.w3.org/2000/svg" xmlns:xlink="http://www.w3.org/1999/xlink">
    <title>signs-light/pisces</title>
    <defs>
        <linearGradient x1="100%" y1="50%" x2="0%" y2="50%" id="linearGradient-1">
            <stop stop-color="#0097A7" offset="0%"></stop>
            <stop stop-color="#0097A7" offset="25.3807957%"></stop>
            <stop stop-color="#26C6DA" offset="63.2672991%"></stop>
            <stop stop-color="#80DEEA" offset="100%"></stop>
        </linearGradient>
    </defs>
    <g id="Page-1" stroke="none" stroke-width="1" fill="none" fill-rule="evenodd">
        <g id="Artboard" transform="translate(-876.000000, -187.000000)" fill="url(#linearGradient-1)">
            <g id="signs-light/pisces" transform="translate(876.952049, 187.000000)">
                <path d="M55.2347489,34.3396226 C55.6901171,34.3631085 56.0648376,34.504963 56.3589104,34.7536782 L56.4800041,34.8667793 L60.2074261,38.7050382 C60.8024161,39.3175491 61.1794343,40.1361988 61.3217938,41.1073051 C61.8130126,41.0133617 62.3334333,40.9661216 62.8783627,40.9661216 C66.2037363,40.9661216 69.5786488,42.7542671 69.7199655,42.8304954 C70.2737598,43.1273566 70.6330483,43.7103425 70.6591215,44.3529153 C70.6851946,44.9954882 70.3728379,45.6069255 69.8435524,45.9499531 C69.8185221,45.9660577 66.9332639,47.8814294 64.7264298,51.1307973 C63.3628024,53.1395756 61.7274925,53.5615157 60.5964379,53.5615157 C59.4622545,53.5615157 58.4360141,53.1336706 57.6470397,52.6607327 C55.1862528,55.8735969 48.7998878,62.0083693 35.4248674,63.0830818 C35.6963352,64.0427254 36.1557735,64.4268671 36.2794632,64.5157717 L36.3097911,64.5362519 C36.8359479,64.8272081 37.1900217,65.3946262 37.2260027,66.0119685 C37.2635481,66.6443418 36.992387,67.2364536 36.5001253,67.5945122 C34.4304362,69.1008275 31.323556,70 28.1890381,70 C24.0673896,70 20.320152,68.4786538 17.6356573,65.7151074 C14.9907938,62.9928961 14.0683246,58.9527931 13.7945562,57.3477031 C6.23437663,51.437858 3.42473063,43.2014377 3.39709306,43.1176938 C3.18016419,42.4617005 3.34025352,41.7514884 3.81478542,41.2635195 C7.44417224,37.5267195 12.8793876,36.7424264 16.8002726,36.7424264 C23.7852778,36.7424264 31.315734,39.2751404 34.705769,42.7650035 C37.5133292,45.6547024 43.2217915,45.9665945 45.5454334,45.9665945 C48.7013312,45.9665945 50.7454686,45.4872148 51.3284649,45.2563824 C51.3029132,45.1259353 51.2606747,44.9477112 51.2293869,44.81458 C51.0677331,44.1204725 50.8481969,43.1821122 50.8481969,41.8126858 C50.8481969,38.2165325 53.8679928,35.013331 53.9967943,34.8785893 C54.3195803,34.5387826 54.7711678,34.3423067 55.2347489,34.3396226 Z M15.6348014,58.4814657 C16.0764811,60.2352547 16.9796561,62.7620637 18.7416816,64.5765134 C21.131028,67.0356832 24.4856035,68.3895417 28.1890381,68.3895417 C31.0122422,68.3895417 33.7817355,67.600954 35.5969503,66.2798414 C35.6428391,66.2460218 35.6683909,66.1805298 35.6647406,66.108596 C35.6610904,66.0468618 35.6178089,65.9813698 35.5588835,65.9491606 C35.4191313,65.8718586 34.2698254,65.1847298 33.8276243,63.1534051 C33.6769213,63.1593101 33.50901,63.1662888 33.3337982,63.1738042 C32.5130145,63.2076239 31.5822019,63.245738 31.308955,63.245738 C26.0479085,63.245738 19.8909875,60.8370293 15.6348014,58.4814657 Z M55.1982465,35.9490073 C55.1945962,35.9506177 55.1471431,35.9710169 55.1132479,36.0064469 C55.0850889,36.035972 52.4125878,38.8682313 52.4125878,41.8126858 C52.4125878,42.8933033 52.569016,43.6532047 52.7103638,44.2656415 L52.7868972,44.593683 C52.9715439,45.3913631 53.0279475,45.8257465 52.4417898,46.434701 C52.4131093,46.4647629 52.3818215,46.4916039 52.3494907,46.5168344 C51.7847456,46.9441427 49.2316597,47.5770528 45.5454334,47.5770528 C43.0267641,47.5770528 36.820304,47.2189942 33.5997447,43.9035975 C32.0916719,42.3516525 29.6658231,41.0047726 26.8165459,40.0261508 C28.3971021,44.9772363 26.2757881,50.2955063 25.2120023,52.4862664 C25.0190607,52.8845864 24.5497435,53.0450954 24.162296,52.8464722 C23.7758915,52.647849 23.6194524,52.1641747 23.8123939,51.7663915 C24.6336991,50.0748735 27.1236879,44.2187105 24.9069461,39.4437017 C24.2587668,39.2686986 23.5949436,39.1130209 22.9222555,38.9772056 C23.6027655,41.8325481 24.1998414,46.2661397 22.6140705,49.7812333 C21.4767583,52.3037478 19.2902614,54.699036 16.1082903,56.9144898 C20.1939578,59.220666 26.2220773,61.6352798 31.308955,61.6352798 C31.5509141,61.6352798 32.5453452,61.5944815 33.2712226,61.5644196 C33.7869501,61.5429468 34.2390591,61.524695 34.4022772,61.5209372 C34.4512948,61.5193268 34.5018767,61.5230845 34.5498514,61.5316736 C48.7169751,60.6206911 54.8452156,53.9426575 56.8257345,51.1082509 C57.0776014,50.7480451 57.5656913,50.6653749 57.915072,50.9230482 C58.5533434,51.3916916 59.5368238,51.9510574 60.5964379,51.9510574 C61.355689,51.9510574 62.4664065,51.6488281 63.4441508,50.2080047 C65.8272395,46.6988162 68.8772803,44.6739333 69.0060818,44.5891159 C69.0506669,44.5601276 69.0805859,44.5172492 69.0915241,44.4695393 L69.0959755,44.4205546 C69.0931662,44.3513049 69.0556208,44.2901074 68.9982598,44.2589719 C68.8694583,44.190259 65.8256751,42.5765798 62.8783627,42.5765798 C62.1305839,42.5765798 61.4490309,42.6823333 60.852998,42.891156 C60.6120818,42.9748999 60.3456139,42.9330279 60.1401573,42.7784239 C59.9341791,42.62382 59.814764,42.3752726 59.8194571,42.1133047 C59.8366654,41.200488 59.6347866,40.4825368 59.2198455,39.9759905 L59.1014017,39.8430954 L55.3739797,36.0053733 C55.3432134,35.9742378 55.2790734,35.9533018 55.1982465,35.9490073 Z M45.7949475,54.2362541 C46.1748975,54.0291117 46.6311427,54.2118844 46.8122166,54.6470576 C46.9937991,55.08049 46.832562,55.5997967 46.452612,55.8069391 C46.4249388,55.8219857 46.3331277,55.8714822 46.1826538,55.9482662 L46.0128283,56.0338806 C44.4065481,56.8344086 38.6937365,59.4339623 32.2367845,59.4339623 C30.9117915,59.4339623 29.6147734,59.3231382 28.3818432,59.1049714 C27.9652715,59.031282 27.6804361,58.586245 27.7450327,58.1116161 C27.8101379,57.636407 28.1967002,57.3155393 28.6163237,57.3845868 C29.7719414,57.5894083 30.9901212,57.6932696 32.2367845,57.6932696 C39.3647893,57.6932696 45.5355438,54.3772502 45.7949475,54.2362541 Z M21.4751984,53.5524773 C21.8035963,53.4371474 22.1488155,53.4838396 22.4481585,53.6850833 C22.748266,53.8863269 22.9661785,54.2183088 23.0617541,54.6198622 C23.1573297,55.0214156 23.1190995,55.4444474 22.9535625,55.8109816 L22.9535625,55.8109816 L22.877102,55.9814084 C22.6511611,56.4819493 22.2206884,56.7924528 21.7535147,56.7924528 C21.5382783,56.7924528 21.3245712,56.725216 21.1357137,56.5977461 C20.8367531,56.3969694 20.6188406,56.0649875 20.523265,55.6634341 C20.4276894,55.2618807 20.4659196,54.8388489 20.6310743,54.4727816 L20.6310743,54.4727816 L20.7079171,54.3018879 C20.8734542,53.9348868 21.1456536,53.668741 21.4751984,53.5524773 Z M16.8002726,38.3528846 C13.1755789,38.3528846 8.17213546,39.0550444 4.92133123,42.4021135 C4.87231365,42.4525746 4.85510535,42.5293397 4.87752828,42.596979 C4.90255854,42.6732073 7.57558107,50.4082384 14.6372415,55.9836449 C17.9057755,53.8202626 20.1110451,51.5065709 21.1956895,49.1032304 C22.7141915,45.7357621 21.9132234,41.244194 21.2327134,38.6835654 C19.7647933,38.4683008 18.2708,38.3528846 16.8002726,38.3528846 Z M21.8315044,54.8916111 C21.8169769,54.8916111 21.8039786,54.8944127 21.7936565,54.898615 C21.7688068,54.9070196 21.7347819,54.9280311 21.7129906,54.9775249 L21.7129906,54.9775249 L21.6361478,55.1479516 C21.6135919,55.1969785 21.617415,55.2427369 21.6242964,55.2726199 C21.6315602,55.302503 21.6487638,55.3435922 21.6889055,55.3706737 C21.7095499,55.3846813 21.7313411,55.3916852 21.7535147,55.3916852 C21.7722475,55.3916852 21.8364743,55.3856152 21.8724108,55.3057714 L21.8724108,55.3057714 L21.9488713,55.1358116 C21.9714272,55.0863178 21.9676041,55.0405594 21.9603404,55.0106764 C21.9534589,54.9807933 21.9362553,54.9397042 21.8961135,54.9126226 L21.8961135,54.9126226 C21.8724108,54.8967473 21.8506195,54.8916111 21.8315044,54.8916111 Z M13.3490175,49.131961 C13.5839,48.8400601 14.0272525,48.7815038 14.3399575,48.9998791 L14.3399575,48.9998791 L16.2265637,50.3206975 C16.538797,50.539513 16.60247,50.9533694 16.3680591,51.2452703 C16.2289219,51.4182975 16.0166787,51.509434 15.8016056,51.509434 C15.653507,51.509434 15.5049368,51.4667275 15.3771192,51.3773521 L15.3771192,51.3773521 L13.490513,50.0565338 C13.1782797,49.8377182 13.1146067,49.4238618 13.3490175,49.131961 Z M33.5324139,37.5561358 C38.8777247,41.7093547 42.4581731,43.3297008 44.4803133,42.5098525 C44.8819176,42.3479198 45.3394745,42.5327675 45.5057638,42.9218136 C45.672053,43.3113688 45.4827552,43.7579569 45.0827197,43.9203989 C44.5514307,44.1358001 43.9709871,44.245283 43.3372054,44.245283 C40.7879596,44.2457921 37.3544523,42.4798084 32.5535035,38.7502626 C27.4774976,34.8068434 21.6725381,36.023376 21.4288564,36.0768443 C21.0016289,36.1690136 20.5869516,35.9103286 20.4912569,35.4998952 C20.4035367,35.1227311 20.6194418,34.7472785 20.981484,34.6159362 L21.0837277,34.58635 L21.1284711,34.5769074 C21.7706296,34.4453861 28.0540152,33.3005631 33.5324139,37.5561358 Z M36.8334981,30.2889264 C42.1803656,34.4437281 45.7634204,36.0636728 47.7813727,35.2450403 C48.1808843,35.0810082 48.6405319,35.2664358 48.8073437,35.6561395 C48.9741555,36.0453338 48.7848581,36.493111 48.3853465,36.6551055 C47.8530129,36.8710981 47.2736164,36.9811321 46.6393132,36.9811321 C44.091119,36.9811321 40.6565737,35.2144754 35.8551129,31.4835083 C30.7995124,27.5533593 24.9726034,28.7560919 24.7278764,28.8095806 C24.3043104,28.8997473 23.8859735,28.6409637 23.7923707,28.2293551 C23.6987678,27.8172371 23.9649346,27.4091944 24.3879777,27.3174994 C24.6630342,27.2578977 31.1969324,25.9079437 36.8334981,30.2889264 Z M42.4714649,0 C46.5936276,0 50.3413801,1.47759509 53.0248273,4.15967775 C55.6702076,6.80319179 56.5926751,10.7257247 56.8659216,12.2841054 C64.4182661,18.0162362 67.2357291,26.0181823 67.2633666,26.0994892 C67.4802951,26.7363926 67.3202061,27.425937 66.8461965,27.9002267 C63.2157731,31.528283 57.7805672,32.2897526 53.8602105,32.2897526 C46.8752175,32.2897526 39.344253,29.8302213 35.9547454,26.441916 C33.148233,23.6368307 27.4397807,23.3340149 25.1156214,23.3340149 C21.9592076,23.3340149 19.9155952,23.7989231 19.3320785,24.0235593 C19.3576301,24.1496891 19.3998686,24.3232479 19.4311564,24.4525049 C19.5928098,25.1258921 19.8123456,26.0369455 19.8123456,27.3670416 C19.8123456,30.8585441 16.7925551,33.9680088 16.6637538,34.0988294 C16.5109652,34.2546674 16.3086377,34.3328471 16.1063101,34.3328471 C15.9081543,34.3328471 15.7099985,34.2583158 15.5577314,34.1082109 C15.4977631,34.0493156 15.4591749,33.9784327 15.4216296,33.9075499 C15.3856487,33.9789539 15.3470604,34.0508792 15.2870922,34.1102957 C15.1343036,34.2630066 14.934062,34.3396226 14.7338203,34.3396226 C14.5736269,34.3396226 14.4134336,34.2905884 14.2775362,34.1927867 L14.1805483,34.1102957 L10.4531329,30.3842543 C9.85814391,29.7895679 9.48112637,28.9947416 9.33876705,28.0518952 C8.84754917,28.1431048 8.32712939,28.1889702 7.78220085,28.1889702 C4.45631167,28.1889702 1.08244792,26.4523399 0.941131525,26.3788511 C0.387338124,26.0906288 0.0275288526,25.5240871 0.00145571697,24.9007348 C-0.0240959559,24.2768613 0.288260209,23.6826961 0.817544862,23.350172 C0.84205361,23.3340149 3.72782826,21.474382 5.934137,18.3195731 C7.29776199,16.3692519 8.93306906,15.9601118 10.0641217,15.9601118 C11.1983031,15.9601118 12.2250632,16.374985 13.0135148,16.8341601 C15.4742973,13.7147927 21.8606512,7.75906812 35.2361697,6.7156306 C34.9285067,5.65968434 34.379928,5.32194832 34.3512475,5.30526999 C33.8245702,5.02173852 33.470497,4.4708327 33.4345161,3.8719767 C33.3969708,3.25800597 33.6686528,2.68260386 34.1603922,2.33548628 C36.2300777,0.873005918 39.3369525,0 42.4714649,0 Z M39.3515535,8.12130043 C39.1851266,8.12130043 38.680542,8.13928637 38.1335075,8.16038526 L37.765774,8.17474916 C37.6432632,8.17958203 37.5219013,8.18440543 37.4049332,8.18905611 C36.8824275,8.20990401 36.4224974,8.22866713 36.2577152,8.23179431 C36.2525006,8.23231551 36.246243,8.23231551 36.2399855,8.23231551 C36.2029616,8.23231551 36.1675021,8.22658234 36.1315212,8.22137036 C21.9513857,9.10115185 15.8163769,15.5884979 13.8348186,18.3414634 C13.5834735,18.6917082 13.094863,18.7714514 12.7460044,18.5217978 C12.1072126,18.0662711 11.1237339,17.5237045 10.0641217,17.5237045 C9.30487197,17.5237045 8.19415639,17.8171387 7.21641381,19.2155118 C4.83332921,22.6225802 1.78329381,24.5885374 1.65449252,24.6708866 C1.59504577,24.7084129 1.56167215,24.7704354 1.56459897,24.8361063 C1.56740824,24.9017772 1.60495356,24.9617149 1.66335738,24.9919443 C1.79163721,25.0586576 4.83541506,26.6253775 7.78220085,26.6253775 C8.52997838,26.6253775 9.21100868,26.5221804 9.80756203,26.3199557 C10.0489993,26.2381277 10.3149452,26.2782599 10.5204016,26.428886 C10.7263793,26.5795121 10.8457943,26.8203054 10.8411011,27.075171 C10.8238929,27.961424 11.0257713,28.6584823 11.4407117,29.1498863 L11.5591553,29.2787943 L15.2870922,33.0048357 C15.345496,33.0632098 15.3819984,33.1330503 15.4185008,33.2028908 C15.4539603,33.1320079 15.4904627,33.0616462 15.5488665,33.0027509 C15.5754611,32.9751274 18.2479575,30.2252891 18.2479575,27.3670416 C18.2479575,26.2224918 18.0617953,25.4479922 17.9121355,24.8262035 C17.6999002,23.9474644 17.5935218,23.5101797 18.219277,22.8795306 C18.247436,22.8503436 18.2787238,22.8242837 18.3110545,22.7997874 C18.8757986,22.3843929 21.4294015,21.7704222 25.1156214,21.7704222 C27.6342863,21.7704222 33.8407355,22.118061 37.0607678,25.3364559 C38.5704023,26.8453229 41.0035473,28.1504016 43.8569913,29.1005447 C42.2753949,24.2940608 44.3847116,19.1305566 45.4484955,17.0035493 C45.6419582,16.6173419 46.1117961,16.4615038 46.4981999,16.6538257 C46.8846038,16.84719 47.0410426,17.316789 46.8481014,17.7029964 C46.0267977,19.3447688 43.5441137,25.0273858 45.7582444,29.6629169 C46.4064225,29.8323061 47.0660728,29.9871018 47.7387597,30.1184436 C47.0582509,27.3467149 46.4606546,23.0437079 48.0464227,19.6298638 C49.1832115,17.1833625 51.3717905,14.8588213 54.552713,12.707839 C50.4665312,10.4677319 44.4410295,8.12130043 39.3515535,8.12130043 Z M56.0263666,13.6152439 C52.7620101,15.7156701 50.5478794,17.9583832 49.4653228,20.2886575 C47.9457804,23.5576087 48.7472686,27.9127355 49.4277775,30.3993691 C50.8962165,30.6083693 52.3886427,30.7261599 53.8602105,30.7261599 C57.4848978,30.7261599 62.4883326,30.0444335 65.7396526,26.7947667 C65.7891915,26.7447318 65.8058783,26.6722853 65.7834554,26.6050508 C65.7579038,26.5320831 63.0812357,19.0252746 56.0263666,13.6152439 Z M54.2924138,19.414863 C54.5272962,19.1233881 54.970177,19.0643886 55.2833537,19.2827747 L55.2833537,19.2827747 L57.1699599,20.6036579 C57.4821932,20.8224842 57.5458662,21.236361 57.3114554,21.5282762 C57.1723181,21.7013119 56.9600749,21.7924528 56.7450018,21.7924528 C56.5969033,21.7924528 56.448333,21.7497443 56.3205154,21.6603645 L56.3205154,21.6603645 L54.4339092,20.3394813 C54.1216759,20.1206549 54.0580029,19.7067782 54.2924138,19.414863 Z M48.2465167,13.8679245 C48.4621492,13.8679245 48.6762523,13.9356244 48.8651219,14.063087 C49.163337,14.2633852 49.3812634,14.5953481 49.4768451,14.9968785 C49.5724269,15.3984088 49.5341942,15.8214164 49.3686466,16.1879295 L49.3686466,16.1879295 L49.2921812,16.3583465 C49.1266336,16.7253266 48.8544167,16.9914571 48.5244685,17.1077142 C48.4067117,17.1492679 48.2862787,17.1698113 48.1669927,17.1698113 C47.9532718,17.1698113 47.7422273,17.103979 47.5502991,16.9746489 C47.2509371,16.7729499 47.0337753,16.4414539 46.9381935,16.0403905 C46.8429941,15.6388601 46.8808445,15.2158526 47.0460098,14.8498063 L47.0460098,14.8498063 L47.1228575,14.6789225 C47.3488128,14.1784102 47.779313,13.8679245 48.2465167,13.8679245 Z M38.4238123,11.2264151 C39.7492811,11.2264151 41.0462672,11.3366714 42.2786582,11.5548629 C42.694711,11.6285605 42.9800479,12.0736479 42.9154529,12.5483304 C42.8508579,13.0235932 42.463288,13.3468183 42.0441835,13.2754419 C40.8896116,13.0705972 39.671462,12.9673044 38.4238123,12.9673044 C31.3061564,12.9673044 25.1248735,16.2831183 24.8654763,16.4247107 C24.759683,16.48216 24.6477861,16.509434 24.5374152,16.509434 C24.2520782,16.509434 23.9789482,16.3266406 23.8482324,16.0132805 C23.6666543,15.5792188 23.8278875,15.0598534 24.2088454,14.8532679 C24.2365696,14.8381605 24.3285248,14.7886174 24.4792051,14.7117988 L24.6492564,14.6261534 C26.2576138,13.8253954 31.9762529,11.2264151 38.4238123,11.2264151 Z M48.2465167,15.2686118 C48.2277827,15.2686118 48.1639341,15.2746814 48.127613,15.3545206 L48.127613,15.3545206 L48.0511476,15.5249376 C48.0285903,15.5739616 48.0324135,15.6201843 48.0396778,15.6495987 C48.0465596,15.6794801 48.0637644,15.7205669 48.104291,15.7481137 L48.104291,15.7481137 C48.1455824,15.7756606 48.1822858,15.7705247 48.2063724,15.7621206 C48.2312236,15.7532496 48.2652507,15.7327062 48.2874257,15.6832152 L48.2874257,15.6832152 L48.3638911,15.5127983 C48.3864484,15.4633073 48.3826251,15.4175515 48.3757432,15.3876702 C48.368479,15.3577889 48.3512743,15.3167021 48.3115123,15.290089 C48.290102,15.2751483 48.2686917,15.2686118 48.2465167,15.2686118 Z M42.4714649,1.56359269 C39.6477443,1.56359269 36.8787773,2.32923191 35.0635656,3.61189911 C35.0176769,3.64421336 34.9921252,3.70779946 34.9957754,3.77763994 C34.9994257,3.83809885 35.0432285,3.90168496 35.1021538,3.93347801 C35.2387771,4.00592447 36.385995,4.67201496 36.8297598,6.64735372 C36.987763,6.64109935 37.1577598,6.63432378 37.3423576,6.62702701 C38.1568824,6.59471277 39.0803929,6.55770774 39.3515535,6.55770774 C44.6146766,6.55770774 50.769501,8.89840599 55.0262011,11.1854209 C54.5840008,9.48266846 53.6834347,7.02887034 51.9188048,5.26565898 C49.5310271,2.87805294 46.175936,1.56359269 42.4714649,1.56359269 Z" id="Combined-Shape"></path>
            </g>
        </g>
    </g>
</svg>