<?xml version="1.0" encoding="UTF-8"?>
<svg width="102px" height="91px" viewBox="0 0 102 91" version="1.1" xmlns="http://www.w3.org/2000/svg" xmlns:xlink="http://www.w3.org/1999/xlink">
    <title>signs-light/sagittarius</title>
    <defs>
        <linearGradient x1="0%" y1="50%" x2="100%" y2="50%" id="linearGradient-1">
            <stop stop-color="#E599F7" offset="0%"></stop>
            <stop stop-color="#CC5DE8" offset="36.8955385%"></stop>
            <stop stop-color="#AE3EC9" offset="74.6192043%"></stop>
            <stop stop-color="#862E9C" offset="100%"></stop>
        </linearGradient>
    </defs>
    <g id="Assets" stroke="none" stroke-width="1" fill="none" fill-rule="evenodd">
        <g id="signs-light/sagittarius" fill="url(#linearGradient-1)">
            <path d="M43.6369123,11.3346489 C37.7119631,11.3346489 31.8142342,9.12738986 31.5657618,9.03376127 L32.3062932,7.07245197 C32.5401085,7.16118951 38.0902553,9.23848646 43.6369123,9.23848646 C44.3383582,9.23848646 45.0223551,9.20424914 45.6693604,9.13647323 C50.8621537,8.58937484 55.2564852,7.13184324 55.7408667,6.96764385 L56.4136964,8.95270965 C55.9069802,9.12529369 51.3067517,10.6506012 45.8878207,11.2221548 C45.166832,11.2962192 44.4102476,11.3346489 43.6369123,11.3346489 L43.6369123,11.3346489 Z M46.9563914,16.4974969 C41.7300963,16.4974969 37.363683,14.7283358 37.1801206,14.6535727 L37.9750925,12.7146225 C38.142602,12.7830971 42.1384006,14.4013345 46.9563914,14.4013345 C49.6218857,14.4013345 52.0298342,13.904544 54.1125352,12.9242387 L55.0024292,14.8212657 C52.6391499,15.9336292 49.9331741,16.4974969 46.9563914,16.4974969 L46.9563914,16.4974969 Z M90.2108238,30.0079623 L88.1951266,29.4412998 C90.016094,22.9480873 85.1708829,18.481864 81.9644727,15.526275 C80.9503425,14.5920853 80.0744076,13.7850627 79.6954174,13.1590089 C77.5847982,9.68427034 80.0485832,4.73173728 80.1539746,4.52212104 L82.0217051,5.47028517 C81.4556627,6.61269368 80.2502925,10.0378231 81.4856748,12.0717993 C81.7118126,12.4442175 82.6380003,13.2980543 83.3820215,13.9834994 C86.5270116,16.8817933 92.3800713,22.2766167 90.2108238,30.0079623 L90.2108238,30.0079623 Z M91.4776141,42.2257943 L74.3225515,38.8376971 L74.727366,36.7813618 L89.1939018,39.6384312 C89.2287996,38.9446014 89.3844438,38.2794192 89.666418,37.6135383 L91.5941728,38.4310416 C91.38339,38.9299283 91.2807905,39.4239239 91.2807905,39.941676 L91.3087087,40.1128626 L91.288468,40.3280686 C91.2807905,40.4782936 91.2947496,40.5761145 91.3066148,40.6739354 L91.4776141,42.2257943 Z M65.8828665,44.9913313 L56.6558871,40.7228459 C55.5524186,40.1680615 54.3016813,39.5392128 54.1837267,37.7700518 C54.0553028,35.8045501 56.5798099,33.9214976 57.356635,33.3911685 C60.3089893,31.3788526 61.5541429,30.3377586 62.2974661,29.7165958 C62.5424487,29.5118706 62.7322928,29.3539597 62.9018961,29.2260938 C63.349286,28.8907078 64.2594207,26.9845974 64.4702034,26.0776578 L66.5096311,26.5506918 C66.3093177,27.4143107 65.2833223,30.0603664 64.1575191,30.9037224 C64.0123442,31.0127229 63.8504184,31.1489734 63.6396357,31.3250511 C62.8669983,31.9713678 61.5722898,33.0529876 58.5361808,35.1239961 C57.2065745,36.0316344 56.244791,37.196402 56.2734072,37.631705 C56.308305,38.1543482 56.5379325,38.3178489 57.595336,38.8488767 L57.7195722,38.9110628 L66.7608953,43.0873171 L65.8828665,44.9913313 Z M80.1497868,74.9769345 C80.0450934,74.7666196 77.604341,69.7917275 79.6961154,66.3456365 C80.0744076,65.7216788 80.9503425,64.9146562 81.9637747,63.9804665 C85.1715809,61.0241788 90.016094,56.5586542 88.1951266,50.0654417 L90.2108238,49.4987792 C92.3793733,57.2301248 86.5270116,62.6235507 83.3827194,65.5218446 C82.6380003,66.2086872 81.7118126,67.062524 81.4863727,67.4335447 C80.2635537,69.4479568 81.4605484,72.8891568 82.0258928,74.044841 L80.1497868,74.9769345 Z M63.1126789,18.319062 C64.9769196,19.8646324 66.9186334,21.0971759 67.6151935,21.1705416 C68.0932935,20.9895729 69.3740429,19.9009659 69.9317098,19.4272332 C70.2025167,19.1966554 70.4328423,19.0010135 70.6164047,18.8556796 C71.1531329,17.4044365 71.2075735,15.9105714 71.2075735,15.8958983 L71.2075735,8.00803913 C71.2075735,7.93816705 71.2096674,7.85641671 71.2131572,7.76907661 C63.7073374,8.04926366 60.6237675,9.38382039 60.6237675,12.3023772 C60.6237675,13.9296979 61.5157553,16.1774828 62.8963125,18.0283942 L63.1126789,18.319062 Z M14.7945751,67.7961808 C14.8399422,67.931034 14.8860073,68.0665858 14.9320725,68.2028363 C14.9837212,68.0931372 15.0221088,67.9575853 15.0221088,67.7961808 L14.7945751,67.7961808 Z M22.5551488,91 C22.5265326,90.93991 22.4511533,90.7924799 22.3366885,90.5660944 C18.4644282,82.9304734 9.50057821,64.0496399 9.89352748,53.6743347 C10.0533594,49.4701316 11.394831,45.7906679 13.7029718,43.1529968 C12.7425842,42.7938543 11.4667205,42.549302 10.0072943,42.849752 C7.08076447,43.4576391 4.65327321,46.193131 1.88936712,51.9960073 L0,51.0939588 C3.07659042,44.6328875 5.94239809,41.5536249 9.58293703,40.7969103 C12.1604888,40.2630876 14.2850672,41.0198022 15.5525554,41.6926703 C19.3550202,39.8759963 24.5792214,39.4497766 31.0890578,40.4251908 C35.3759041,41.0666165 40.9972424,39.8054255 43.1860327,39.2897695 C43.149739,39.1472305 43.1197268,39.0025952 43.0952984,38.8558639 C42.8105323,37.1607672 43.2970077,35.467068 44.4311863,34.1898064 L49.3224626,25.7981695 C49.9806351,24.6690367 50.8209743,23.7110905 51.8218433,22.9508822 C53.7042308,21.5282867 55.816246,20.4285001 58.103448,19.6787727 C58.7204412,19.4768424 59.9865336,19.0638984 60.7089181,18.5559284 C59.3520915,16.494702 58.5298992,14.1616732 58.5298992,12.3023772 C58.5298992,7.07943918 64.2943185,5.94681276 70.8425425,5.68549118 C69.7509392,3.34896881 66.3588726,2.09616241 61.043937,2.09616241 C58.2563004,2.09616241 54.8670257,3.25534022 51.2788335,4.48299267 C47.6766821,5.71553617 43.9677435,6.98371443 40.939312,6.98371443 C35.0332077,6.98371443 31.0395029,3.90165697 31.0004174,3.87091325 L32.2923341,2.22123343 L31.6460268,3.0464227 L32.2818648,2.21354751 C32.3174605,2.2400989 35.8721509,4.88755202 40.939312,4.88755202 C43.6194634,4.88755202 47.1615905,3.67666887 50.586461,2.50491408 C54.3589137,1.21437676 57.9080203,0 61.043937,0 C71.4246378,0 73.1848831,4.46203105 73.3112131,7.12206115 C73.3223804,7.36032494 73.3154009,7.5839156 73.3077234,7.78305103 C73.3049315,7.86619881 73.3014418,7.94305809 73.3014418,8.00803913 L73.3014418,15.896597 C73.3014418,16.249451 73.1953524,17.7013928 72.7158566,19.1889694 C74.4663305,20.9804896 77.302824,24.7081651 76.31731,29.31553 C77.0124743,30.0086611 78.2534402,31.0176139 78.7224667,31.2796342 L94.8466481,35.5110874 C96.7841742,33.8411447 98.8801363,31.8980021 98.8801363,28.0808904 C98.8801363,22.3003732 94.6023635,19.0785715 91.1663257,16.489811 C90.4439411,15.9462062 89.7697155,15.4375374 89.2085589,14.9561188 C85.9539896,12.1584407 86.7657126,7.99965448 87.7582061,5.98314624 L89.6364059,6.90965003 C89.5568389,7.07175325 87.7142349,10.9091279 90.572365,13.3651315 C91.0825709,13.8032295 91.7302742,14.2916353 92.417063,14.8093874 C95.8286723,17.3792825 100.974005,21.2543881 100.974005,28.0808904 C100.974005,31.7617516 99.3666117,34.0752161 97.6747662,35.7640243 C100.146927,36.005083 102,37.5988652 102,39.5902194 C102,41.7534591 99.8133036,43.447857 97.0214793,43.447857 L97.0214793,41.3516946 C98.7217003,41.3516946 99.9061317,40.4237934 99.9061317,39.5902194 C99.9061317,38.7573442 98.7217003,37.8287443 97.0214793,37.8287443 L97.0214793,36.3858858 C96.6662196,36.7100923 96.3158457,37.0119397 95.9836186,37.296319 C94.4788252,38.5889525 93.8660198,39.1898524 93.8660198,39.941676 C93.8660198,40.0150417 93.8611341,40.0863112 93.8534566,40.1575807 C93.8611341,40.2288503 93.8660198,40.3001198 93.8660198,40.3734855 C93.8660198,41.125309 94.4788252,41.7262089 95.9829206,43.0181437 C98.09005,44.8278306 100.974005,47.3040971 100.974005,52.2342711 C100.974005,59.0600746 95.8293703,62.9358789 92.4247405,65.5001843 C91.7707556,65.9934812 91.0944362,66.5021499 90.5716671,66.9514274 C87.7044635,69.4144182 89.5547451,73.2413121 89.63501,73.4027166 L87.759602,74.3348101 C87.6500229,74.1140143 85.1192342,68.874307 89.2085589,65.3597414 C89.7822788,64.8671432 90.4858185,64.3375129 91.1663257,63.8253505 C94.6023635,61.2365899 98.8801363,58.0140896 98.8801363,52.2342711 C98.8801363,48.2676331 96.6173627,46.3244905 94.6205103,44.6098297 C93.0912886,43.2969333 91.7721516,42.1636082 91.7721516,40.3734855 L91.7442333,40.2022989 L91.7637761,39.9870929 C91.7693597,38.8593575 92.2690963,37.9964373 93.0075338,37.1957033 L77.8842214,33.2053087 C77.079478,32.8210123 75.0665727,31.1482747 74.3546575,30.2720788 L74.012659,29.8500514 L74.1585318,29.3274083 C75.1859232,25.6605215 72.9747983,22.5274574 71.4448786,20.8910533 C71.3925319,20.934374 71.3387893,20.9797908 71.2864425,21.024509 C69.4605894,22.5777653 68.5064835,23.2701976 67.6773116,23.2701976 C66.1222655,23.2701976 63.5356402,21.3661834 62.0545774,20.1622875 C61.1570059,20.8428416 59.9118523,21.2928178 58.7539431,21.6715244 C56.6879931,22.3485849 54.7804791,23.3414672 53.0851438,24.6222224 C52.3083187,25.2126415 51.6494481,25.9644651 51.1315647,26.8546354 L46.0476526,35.5250618 C45.3008396,36.3320843 44.976988,37.4192939 45.1605504,38.5085996 C45.3489986,39.6349376 46.073477,40.6061595 47.0987745,41.1050461 L63.0910422,48.8971805 C63.1245441,48.9132511 63.1608378,48.9216358 63.1978295,48.9216358 L63.1978295,51.0177982 C62.840476,51.0177982 62.4963836,50.9388427 62.1753238,50.7816306 L46.1823581,42.9901949 C45.3399251,42.5800458 44.6252181,41.9700625 44.0891878,41.2294184 C44.0438207,41.240598 43.9949638,41.2517775 43.9426171,41.2643545 C41.894116,41.7492667 35.6578784,43.2291574 30.7798633,42.4982954 C24.4165977,41.545939 19.4478483,41.9854344 16.0111126,43.8076982 L15.9329415,43.8489227 C13.5417439,46.1365347 12.142342,49.6434144 11.9859998,53.7532901 C11.855482,57.197285 12.8375062,61.6851687 14.3339241,66.3875597 C15.5190535,65.9662311 17.6827174,65.4987868 21.6080224,64.747662 C22.3325008,64.610014 23.0807097,64.4667762 23.2265825,64.4255517 L23.2265825,64.4262504 C23.2237907,64.4262504 24.6252865,63.9245689 26.5216332,62.915616 L27.0786022,63.8050876 L26.5858452,62.8799813 C26.842693,62.743032 27.1051245,62.5983968 27.3759315,62.4439795 L27.4973758,62.3720112 C27.84426,62.1714784 28.2085931,61.9485864 28.5771139,61.714515 C28.8255862,61.5559053 29.0293894,61.4252446 29.2373803,61.2848017 L29.5682115,61.0521276 C29.7978391,60.8914219 30.0295605,60.7265237 30.2619799,60.5525423 L30.5914151,60.2975092 C30.8224386,60.1186366 31.0534621,59.9341744 31.2823917,59.7413274 C31.3835953,59.6553848 31.4889867,59.5645511 31.5922842,59.4737173 C31.8260995,59.2696909 32.055727,59.0593759 32.2825627,58.8427725 C33.104755,58.0574103 33.7761887,57.2944072 34.3366475,56.5097437 C36.2148473,53.8818548 43.3437707,53.0175371 48.6782491,55.7914587 C51.6899296,57.3579908 60.1945245,58.8050415 65.0383397,55.8662218 C65.5185335,55.575554 65.9910497,55.012385 66.4454191,54.1906894 C66.5166107,54.0593298 66.5864063,53.9251754 66.6534101,53.7889249 C66.6729528,53.6799244 66.6931936,53.5918856 66.7155282,53.5171225 L66.7734585,53.5345905 C67.7645561,51.3874215 68.2621988,48.6875643 68.3962064,47.4536234 L70.4775114,47.6793102 C70.3190754,49.1417328 69.769784,52.0553986 68.6760868,54.4163762 C68.6160626,54.92225 68.5399854,55.9067476 68.4597204,56.9366621 C68.1623911,60.7677483 67.6647484,67.1806078 66.400052,73.6025507 C65.5715781,77.8165359 65.9540581,81.9837068 67.5063124,85.6533884 C67.7052299,86.1215314 67.9111269,86.5491485 68.1177219,86.9243616 L66.2855872,87.9382054 C66.0440944,87.5008062 65.8067893,87.0075093 65.5785577,86.4722892 C63.8622837,82.4148175 63.4358325,77.8242218 64.3459673,73.1972926 C65.5066682,67.3021852 66.0119884,61.3763341 66.3128075,57.537562 C66.2499914,57.5808827 66.1871754,57.6207098 66.1236614,57.6598381 C64.4304199,58.6869577 62.4182125,59.2641011 60.3369075,59.5191342 L61.5311104,89.373378 L59.438638,89.4565257 L58.247227,59.6714553 C54.0183111,59.7776609 49.8522112,58.7645157 47.7129758,57.6514535 C43.0778495,55.2415654 37.1228882,56.2134861 36.0396603,57.7290115 C35.4024264,58.6219767 34.645842,59.482102 33.7280298,60.3589966 C33.4788595,60.5972604 33.2261994,60.8292357 32.9693515,61.0528264 C32.8576785,61.1506473 32.7446097,61.2498656 32.6294469,61.3455904 C32.3767868,61.5580015 32.1255226,61.7592331 31.8728625,61.9555736 L31.7604916,62.0429137 C31.6788307,62.1071961 31.5964719,62.1714784 31.5141131,62.2329658 C31.2656407,62.4188255 31.0164704,62.5956019 30.7673001,62.7709808 L30.4106445,63.0218216 C30.1859027,63.173444 29.9653485,63.3145856 29.7461903,63.4543298 C29.30578,63.7338181 28.9170185,63.9713832 28.5394243,64.1900828 L28.4242615,64.2585574 C28.1248383,64.429744 27.84426,64.5841613 27.5713592,64.7294952 L27.5043554,64.7665274 C26.557229,65.2696064 25.7217755,65.6573965 25.0922192,65.9298976 L38.0441902,88.1687833 L36.235786,89.2252492 L23.061167,66.6027657 C22.8022252,66.6537723 22.4602268,66.7194521 22.0009717,66.8074909 C20.3670565,67.1191204 16.2833154,67.8995915 14.9900028,68.3733242 C17.8076515,76.5888834 21.9137272,85.101399 24.2037211,89.6172315 C24.3307491,89.8680723 24.4131079,90.0308742 24.4445159,90.096554 L22.5551488,91 Z" id="Fill-1"></path>
        </g>
    </g>
</svg>