<?xml version="1.0" encoding="UTF-8"?>
<svg width="98px" height="100px" viewBox="0 0 98 100" version="1.1" xmlns="http://www.w3.org/2000/svg" xmlns:xlink="http://www.w3.org/1999/xlink">
    <title>signs-light/scorpio</title>
    <defs>
        <linearGradient x1="0%" y1="50%" x2="100%" y2="50%" id="linearGradient-1">
            <stop stop-color="#00F2E1" offset="0%"></stop>
            <stop stop-color="#2DCCBC" offset="36.8955385%"></stop>
            <stop stop-color="#0DA797" offset="74.6192043%"></stop>
            <stop stop-color="#008678" offset="100%"></stop>
        </linearGradient>
    </defs>
    <g id="Assets" stroke="none" stroke-width="1" fill="none" fill-rule="evenodd">
        <g id="signs-light/scorpio" transform="translate(0.200000, 0.000000)" fill="url(#linearGradient-1)">
            <path d="M89.9035624,24.6876795 C85.3356171,31.4015187 79.5132385,35.2517986 73.9289385,35.2517986 C73.3043588,35.2517986 72.6458755,35.1091956 71.9519818,34.951259 C71.8819144,34.5740512 71.819381,33.905504 71.8706132,32.8773827 L73.3111395,31.2374487 C73.3495636,31.1922144 73.3781933,31.1416133 73.4098367,31.0925457 C73.4241516,31.0703119 73.4407266,31.0526782 73.4535347,31.028911 C73.5107941,30.9238755 73.5492182,30.8104065 73.5718206,30.6931041 C73.5740808,30.6816038 73.5808615,30.6731703 73.5831218,30.6609034 C74.2762621,26.4288156 78.61743,21.3081428 80.2636382,20.2784881 C80.3118567,20.2485875 80.3517876,20.2125534 80.3939787,20.177286 C80.4075402,20.1665525 80.421855,20.158119 80.4346631,20.1458521 C80.496443,20.0883509 80.5514421,20.0254829 80.5974003,19.9564815 C80.5989072,19.9549481 80.600414,19.9541814 80.6011674,19.952648 L80.879177,19.5447729 C80.9070532,19.5033721 80.9439705,19.4719381 80.9869151,19.4520043 C85.1472638,17.5069307 88.3982425,13.8690219 89.9080829,9.46979739 L92.1095568,3.05649776 C92.1419536,2.9621958 92.2263359,2.89242769 92.3220194,2.87939409 C92.4568804,2.86636048 92.5337285,2.93076182 92.5774265,2.99286311 C96.3633288,8.55284504 95.3643026,16.6628132 89.9035624,24.6876795 L89.9035624,24.6876795 Z M62.5799349,38.1294964 C61.6724542,38.1294964 60.9602922,37.9876314 60.3555555,37.6849354 C61.0519418,36.1691797 61.4523451,34.4880413 61.4523451,32.710556 L61.4523451,30.6516166 C61.4523451,29.233725 61.1916698,27.8803175 60.7386806,26.618705 C62.0833747,26.7279487 64.117694,27.2127174 65.8665475,28.9788231 C67.3412036,30.4672679 68.6693707,31.5756358 69.5317778,32.249305 C69.4852018,33.4335366 69.572344,34.2634849 69.6962962,34.8226 C68.3298166,35.9848311 65.4353439,38.1294964 62.6715844,38.1294964 L62.5799349,38.1294964 Z M51.7882486,42.0814491 C51.7474471,42.0883864 51.7081851,42.1007194 51.6689232,42.1122816 C50.8744471,42.3227133 50.0445582,42.4460432 49.1854153,42.4460432 L47.0952963,42.4460432 C41.7295026,42.4460432 37.3629629,38.0739979 37.3629629,32.700668 L37.3629629,30.6086845 C37.3629629,25.2353546 41.7295026,20.8633094 47.0952963,20.8633094 L49.1854153,20.8633094 C54.5519788,20.8633094 58.9185185,25.2353546 58.9185185,30.6086845 L58.9185185,32.700668 C58.9185185,37.1706064 55.8930423,40.9375642 51.7882486,42.0814491 L51.7882486,42.0814491 Z M49.1095488,49.7264129 C47.2966741,50.1537204 44.6352521,50.4343873 41.725512,50.3421456 C40.2424586,50.2972074 39.0359067,50.1639694 38.0814815,49.9905236 C38.1782189,49.8312688 38.2399176,49.6491507 38.2559135,49.4559951 C38.5362236,46.0233447 39.3238338,43.4200806 40.003281,41.7266187 C42.0659973,43.4934009 44.7098999,44.5577275 47.5899333,44.5577275 L49.6579815,44.5577275 C49.8727843,44.5577275 50.0837786,44.536441 50.2962963,44.5246151 C49.7120631,45.8065374 49.1316385,47.4700405 49.0105263,49.2052871 C48.9983389,49.3905588 49.0409948,49.564793 49.1095488,49.7264129 L49.1095488,49.7264129 Z M53.0636703,59.2197643 C53.280752,59.4359508 53.5648058,59.5674456 53.8765722,59.5674456 L53.8811909,59.5674456 C53.8835003,59.5674456 53.8858097,59.5667027 53.8888888,59.5667027 C52.0852628,61.8726911 47.5196178,65.1370316 44.2449164,65.4676259 C44.365774,65.3168154 44.4481419,65.1370316 44.4758545,64.9416466 C44.5305098,64.5612774 44.3796303,64.1816511 44.0747921,63.9342625 C40.8555158,61.3266532 37.5430946,57.986536 37.3837474,52.9808177 C37.3822078,52.9407006 37.3683515,52.9042981 37.3629629,52.864181 C38.5469053,53.0380217 39.7878123,53.1189987 40.9117108,53.1509438 C41.2404126,53.1606016 41.5937478,53.165059 41.9670976,53.165059 C44.0440003,53.165059 46.7190326,53.0045908 48.9144835,52.5179856 C48.8390438,52.7460586 48.8305761,52.9956759 48.9206419,53.2348924 C49.6850468,55.2674904 51.0013936,57.1685936 53.0636703,59.2197643 L53.0636703,59.2197643 Z M63.9982229,69.0756228 C64.1695596,69.2973632 64.4100457,69.4319367 64.6666666,69.4885188 C63.5925467,71.9643652 59.9506811,73.409501 57.1754872,74.1007194 C57.2822845,73.6962343 57.1401442,73.2420488 56.8351188,72.952257 C56.7529079,72.8727363 56.6699287,72.7939802 56.5823395,72.7190472 C54.9258284,71.3159656 52.9297172,70.0008156 50.8152838,68.6084387 C49.9324772,68.0273259 49.034304,67.430156 48.1407407,66.8184583 C51.1356758,65.5583611 54.1137077,63.2262636 55.8470514,61.1510791 C55.886236,61.2007796 55.923884,61.25048 55.9715202,61.2932989 C56.524715,61.7864801 57.090203,62.2788968 57.6618376,62.7759011 C59.7562946,64.5964664 62.1311905,66.6601815 63.9982229,69.0756228 L63.9982229,69.0756228 Z M66.8222222,79.3823726 C66.8222222,82.2013054 66.2320744,84.7326832 65.0680485,86.9064797 C64.9267976,87.1709409 64.8994348,87.4815896 64.9881789,87.7676547 C61.8643889,87.8287415 59.6309975,86.5652875 58.2,85.3010885 C58.2968789,85.2116932 58.3834043,85.1111234 58.444046,84.9896948 C58.6126597,84.6552072 58.7509525,84.3363639 58.8685383,84.0137957 C59.7271368,81.6649334 59.631737,78.8586649 58.6052644,76.3168576 C58.5379668,76.1507313 58.4285158,76.0144034 58.2990975,75.9019143 C60.5776005,75.2210198 63.3981816,74.0097131 65.0502997,71.942446 C66.2387302,74.2525704 66.8222222,76.6878483 66.8222222,79.3823726 L66.8222222,79.3823726 Z M62.3443571,90.946394 C58.5650705,94.4141464 52.4068513,96.4028777 45.44908,96.4028777 C44.6897332,96.4028777 43.9068701,96.373908 43.1111111,96.3237982 C43.8363214,95.1939796 44.5380155,93.636662 44.4773285,91.889084 C49.8625463,91.6471477 54.0560221,90.1908327 56.6511524,87.6446302 C56.8188004,87.4794246 56.9083138,87.268807 56.9568635,87.0503597 C58.4110771,88.3492988 60.494919,89.6302297 63.2296296,90.0561627 C62.9413661,90.3685658 62.6462752,90.6707903 62.3443571,90.946394 L62.3443571,90.946394 Z M35.6476384,97.8355808 C35.6068909,97.8355808 35.567681,97.8378855 35.5277023,97.8417266 C33.39576,97.8225209 30.913235,97.2663221 28.1462461,96.1900313 C24.7780387,94.8786621 22.2832126,92.2451684 21.3006586,88.9648247 C20.2489106,85.4532437 21.0000493,81.6481986 23.4172245,78.2503157 C26.457145,73.9797231 28.8366479,69.1790515 29.2348975,68.3601179 C29.3271561,68.3409122 29.6900399,68.3401439 29.7869114,68.3593497 C30.0936712,68.993908 31.7074277,72.6545257 30.6041687,77.0687774 C29.9414445,79.7145628 30.1644028,82.0376914 31.2315272,83.6125637 C32.0879944,84.873998 33.4372763,85.6391554 35.2424694,85.8849891 C40.2182828,86.5610319 41.79898,89.8644225 42.2502783,91.2664429 C42.99296,93.7363035 40.6026936,96.1577656 40.282095,96.4673625 C39.1111797,97.3754108 37.5535472,97.8355808 35.6476384,97.8355808 L35.6476384,97.8355808 Z M34.246634,38.1294964 L34.1572085,38.1294964 C31.4619853,38.1294964 28.6370219,35.9792124 27.3037037,34.8120023 C27.4239149,34.251985 27.5089423,33.4195679 27.4642296,32.2318137 C28.3064411,31.5546188 29.6045755,30.4414322 31.0397801,28.9516034 C32.6193847,27.3126396 34.4489406,26.775449 35.761002,26.618705 C35.2383764,27.979182 34.9422464,29.4575973 34.9422464,31.0098193 L34.9422464,33.0748833 C34.9422464,34.7846102 35.297749,36.4075952 35.9259259,37.8791626 C35.4436151,38.0419937 34.8989997,38.1294964 34.246634,38.1294964 L34.246634,38.1294964 Z M7.09604762,23.9688245 C1.63538054,15.9443906 0.63636777,7.83485962 4.42372613,2.27364408 C4.46591672,2.21231278 4.54879108,2.14178178 4.67536283,2.16171446 C4.77481207,2.17474736 4.85693303,2.24297843 4.89008277,2.33957522 L7.09228061,8.75176254 C8.60134741,13.15075 11.853036,16.7884626 16.0118222,18.7326648 C16.056273,18.7525975 16.0931898,18.7855631 16.1210657,18.8254284 L16.3847568,19.2141155 C16.469138,19.3444445 16.5821485,19.4594407 16.7192679,19.5491377 L16.7200213,19.5491377 C16.7207747,19.5499044 16.7215281,19.5499044 16.7222815,19.550671 C16.7275553,19.5537376 16.7320758,19.5568042 16.7373496,19.5606374 C18.3850426,20.5917698 22.7231388,25.7114 23.4162698,29.9409597 C23.4162698,29.9432596 23.4170232,29.9455596 23.4170232,29.9478595 C23.4170232,29.9486261 23.4177766,29.9501594 23.4177766,29.9509261 C23.4569536,30.1763186 23.5579096,30.3748787 23.7003028,30.5328068 L25.1295089,32.1588528 C25.1807403,33.1861521 25.1174544,33.8546632 25.0473879,34.2318507 C24.3542569,34.3897788 23.6957824,34.5323741 23.0712111,34.5323741 C17.4869859,34.5323741 11.6646852,30.6823018 7.09604762,23.9688245 L7.09604762,23.9688245 Z M21.2535391,3.29771445 C21.1814471,3.1984508 21.1884237,3.06433122 21.2705931,2.97112947 C21.3512122,2.87868546 21.4822181,2.85064917 21.5946197,2.90596402 C21.7139979,2.96355209 33.478177,8.79131331 31.3596016,18.9707626 C30.2340357,24.3810103 27.3991909,26.8997306 25.2333293,28.057554 C24.0519502,24.2415865 20.8930789,20.2990769 18.6814815,18.4327688 C21.2814457,15.1669189 25.1837176,8.75342643 21.2535391,3.29771445 L21.2535391,3.29771445 Z M64.9218488,18.9700369 C62.8035272,8.79147225 74.5662967,2.96421748 74.6864357,2.90663442 C74.800374,2.84980902 74.9305891,2.87935823 75.0111985,2.9717942 C75.092583,3.06498785 75.0995588,3.19909578 75.0274754,3.29910847 C71.0954426,8.75586167 74.9995722,15.1687968 77.5999999,18.4336052 C75.3886675,20.2982358 72.2371506,24.2388875 71.0566881,28.057554 C68.8895358,26.9021043 66.0496051,24.3896642 64.9218488,18.9700369 L64.9218488,18.9700369 Z M94.3129645,1.47989864 C93.7671551,0.688401368 92.8392791,0.275148464 91.8818385,0.403766771 C90.9297043,0.533907189 90.1413129,1.18004295 89.8251983,2.09026481 L87.6101218,8.4564905 C86.2941147,12.2396953 83.45818,15.3691537 79.8315797,17.0419528 C79.7209017,17.0937045 79.614014,17.1523058 79.5124328,17.2185176 C77.3284371,14.3653221 74.2332429,9.07979461 77.1775815,4.88333693 C77.8454399,3.93049598 77.7855525,2.64583502 77.0335484,1.7584448 C76.2792701,0.871054586 75.0223924,0.612295861 73.9891448,1.12068065 C73.9565479,1.13742386 70.6589494,2.78054177 67.6873204,5.90086757 C63.7544604,10.0288303 62.2049682,14.8234772 63.2056187,19.7642468 C63.8029768,22.7095299 64.8430469,24.9295276 66.0430696,26.6015656 C63.4368297,24.6852289 60.6190886,24.53454 59.3379526,24.5847696 C58.9839346,24.023111 58.5851905,23.4956998 58.1455107,23.0025361 L58.1455107,16.851689 C58.1455107,13.6263376 55.5604967,11.0029808 52.3834311,11.0029808 C51.7557503,11.0029808 51.2463282,11.5144098 51.2463282,12.1445634 C51.2463282,12.774717 51.7557503,13.286146 52.3834311,13.286146 C54.3392482,13.286146 55.8713048,14.8523973 55.8713048,16.851689 L55.8713048,21.011616 C53.9920527,19.7566362 51.7398309,19.020696 49.3193178,19.020696 L47.2611615,19.020696 C44.8406484,19.020696 42.5884265,19.7566362 40.7099324,21.011616 L40.7099324,16.851689 C40.7099324,14.9186091 42.3920867,13.286146 44.383533,13.286146 C45.0112138,13.286146 45.5206359,12.774717 45.5206359,12.1445634 C45.5206359,11.5144098 45.0112138,11.0029808 44.383533,11.0029808 C41.1594671,11.0029808 38.4357266,13.6811336 38.4357266,16.851689 L38.4357266,23.0025361 C38.097628,23.3815415 37.776965,23.7757681 37.4896569,24.1966315 C36.1660691,24.1654283 33.4681029,24.3724353 30.9581377,26.2195159 C32.1566442,24.5474779 33.1974724,22.3282413 33.7940724,19.3837192 C34.794723,14.4429497 33.2452307,9.64830275 29.3123707,5.52034003 C26.3407418,2.40001423 23.0431433,0.756896325 23.0188851,0.744719444 C21.9750246,0.230246214 20.720421,0.490527049 19.9669008,1.37791726 C19.2133806,2.26530748 19.1542512,3.5507295 19.8228678,4.5028094 C22.7664482,8.69850602 19.671254,13.9840335 17.4880164,16.83799 C17.3856772,16.7717782 17.2795475,16.713177 17.1688695,16.6614252 C13.5415112,14.9886262 10.7063345,11.8599288 9.39032742,8.07520191 L7.17449285,1.70973728 C6.85762016,0.799515409 6.06998687,0.153379652 5.11633654,0.0232392343 C4.1679927,-0.105379073 3.23253602,0.306351722 2.68824276,1.097849 C-1.68353897,7.43058826 -0.678339985,16.4536572 5.37711215,25.2331885 C10.4046232,32.5233351 16.9452393,36.7038106 23.3213544,36.7038106 C24.2173916,36.7038106 25.0588477,36.5196353 25.8722553,36.3354599 C27.5521354,37.7890751 31.0036218,40.330238 34.5915606,40.330238 L34.684045,40.330238 C35.7756638,40.330238 36.7224915,40.1567175 37.5586412,39.8142427 C37.7004,40.0159223 37.8467073,40.2145577 37.9998371,40.4071046 C37.3031721,41.8942062 36.363167,44.3874226 35.8908902,47.7703124 C34.8311103,47.4476251 33.6432168,47.8555506 33.0178102,48.8335064 C32.949584,48.9377709 32.8904546,49.0466018 32.8434544,49.1516274 C32.3135644,50.3015816 32.7153408,51.6851797 33.7720884,52.366324 C33.8585083,52.4234031 34.5415281,52.8617709 35.6513405,53.3815715 C36.0599395,58.4623752 39.0740204,62.0499888 42.0107782,64.6893278 C41.7924544,64.9907056 41.6309858,65.3301361 41.5726145,65.6832657 C41.3467101,67.0714301 42.2867152,68.3857723 43.6739807,68.6148498 C43.897611,68.6506194 45.2037632,68.8500158 46.9238209,68.796742 C47.7440512,69.3606838 48.5665556,69.9116877 49.3761729,70.4489926 C51.0446819,71.5570887 52.636626,72.6157164 53.9996334,73.6827156 C53.8313422,73.9262532 53.7039867,74.2017551 53.6296959,74.4970445 C53.5273567,74.8981205 53.5356954,75.306046 53.6259056,75.6979894 C53.6266637,75.7101663 53.6251475,75.7223432 53.6266637,75.733759 C53.6319701,75.7740949 53.6531961,75.8068203 53.6622929,75.8456341 C53.6804865,75.9095627 53.6979221,75.9727303 53.7221803,76.0351368 C53.7434062,76.0846054 53.7615999,76.134074 53.7896484,76.1789762 C53.8275518,76.2634533 53.8586326,76.3494525 53.906391,76.4301244 C54.2528283,77.0161368 54.8062184,77.4316729 55.4589155,77.5983439 C55.4899963,77.6059545 56.0843221,77.7589265 56.9970367,77.8571026 C57.5102492,79.437053 57.5997013,81.0893035 57.2570543,82.5695557 C56.5929862,82.2270809 55.7977722,82.2027271 55.0821554,82.5170429 C55.0033163,82.5391135 54.9267513,82.5687946 54.8517025,82.6091305 C54.8471541,82.6114137 54.8441219,82.6144579 54.8395734,82.6167411 C54.835025,82.6190242 54.8312347,82.6197853 54.8274443,82.6220685 C54.7948474,82.6410948 54.7690731,82.6669707 54.7379922,82.6867581 C54.7084276,82.7073066 54.6781048,82.7255719 54.6515724,82.7476425 C53.5811795,83.4927155 53.2264034,84.9463306 53.8859231,86.1054175 C54.0261658,86.3504773 54.1891506,86.6031475 54.3695709,86.858101 C52.0536713,88.5978729 48.5112166,89.5750676 44.0143536,89.7097744 C43.201704,87.8307294 40.9820791,84.3504245 35.545969,83.6083958 C34.418721,83.4546627 33.6401845,83.0391266 33.1679077,82.338956 C32.4932267,81.3389296 32.3855809,79.644821 32.872261,77.6911926 C34.1731067,72.4657885 32.2627738,68.2267117 31.8632717,67.4237986 C31.4622534,66.6155582 30.6973621,66.2061105 29.5708721,66.2061105 C28.1714775,66.2061105 27.5551677,66.8994317 27.2890856,67.4763114 C27.0336165,68.0052447 24.7116523,72.7709716 21.7263781,76.9849335 C18.9275887,80.9370925 18.0717293,85.4090521 19.3142037,89.5765897 C20.4854197,93.505156 23.4388551,96.6513577 27.4179573,98.2069542 C30.4608447,99.3964833 33.2270371,100 35.6384534,100 C35.6824214,100 35.7248732,99.9977168 35.767325,99.9923894 C37.9338852,99.972602 39.77675,99.4429077 41.2564999,98.4154833 C42.7233627,98.5654112 44.1591447,98.6415167 45.532765,98.6415167 C53.1452901,98.6415167 59.6783254,96.5531816 63.926542,92.7623663 C64.2813181,92.4457673 64.6315458,92.1055757 64.9711605,91.7471188 C65.5472927,91.6824291 66.0642955,91.5865362 66.5684111,91.4525905 C67.9223217,91.0910893 68.731939,89.6922701 68.3741306,88.3345478 C68.2846785,87.9935952 68.1270002,87.6808015 67.9132249,87.410627 C69.0101502,85.0544005 69.5642983,82.3914688 69.5642983,79.4796721 C69.5642983,76.4286023 68.9214561,73.6583618 67.5986264,71.0266334 C67.6956592,70.6088141 67.7676757,70.2031718 67.8161921,69.7975294 C67.8980635,69.1201904 67.7123367,68.4527451 67.2938828,67.9162013 C66.8746708,67.3804185 66.2727644,67.0394658 65.5867123,66.9557498 C65.3691466,66.9329181 65.1477905,66.9382455 64.9287087,66.9709709 C63.0517308,64.6756288 60.8472673,62.7425489 58.8823534,61.0202813 C58.4729963,60.6610633 58.0666716,60.3041284 57.6656533,59.9464325 C57.6861211,59.6716917 57.695976,59.4091277 57.695976,59.1541742 C57.695976,57.7743814 56.5611473,56.6929221 55.1132362,56.6929221 C54.9767839,56.6929221 54.7038792,56.6929221 54.3817,56.7751161 C53.1831935,55.4516413 52.3227856,54.2027499 51.7383147,52.9348322 C51.9210093,52.8176297 52.0938489,52.7004272 52.2628982,52.5801805 C52.8155302,52.1836708 53.1816774,51.5961363 53.2931135,50.9233636 C53.4053076,50.2505909 53.2499035,49.574774 52.8564659,49.0230091 C52.4645445,48.469722 51.8823478,48.1028935 51.2152474,47.9879742 C51.5685073,46.6576499 52.194672,45.3661394 52.8079495,44.3691573 C55.2928985,43.5997306 57.4230713,42.0243466 58.9164665,39.9557989 C59.8739071,40.4672279 60.976897,40.7107656 62.3156462,40.7107656 L62.4081305,40.7107656 C65.9983435,40.7107656 69.4483138,38.1696027 71.1274358,36.7159875 C71.9416015,36.9001628 72.7822996,37.0843381 73.6790948,37.0843381 C80.0544519,37.0843381 86.5950679,32.9038626 91.622579,25.6137161 C97.6780311,16.8341847 98.6832301,7.8111158 94.3129645,1.47989864 L94.3129645,1.47989864 Z" id="SCORPION"></path>
        </g>
    </g>
</svg>