<svg xmlns="http://www.w3.org/2000/svg" xmlns:xlink="http://www.w3.org/1999/xlink" width="64.112" height="70" viewBox="0 0 64.112 70">
  <defs>
    <linearGradient id="linear-gradient" x1="1" y1="0.5" x2="0" y2="0.5" gradientUnits="objectBoundingBox">
      <stop offset="0" stop-color="#279f30"/>
      <stop offset="0.254" stop-color="#388e3c"/>
      <stop offset="0.633" stop-color="#66bb6a"/>
      <stop offset="1" stop-color="#a5d6a7"/>
    </linearGradient>
  </defs>
  <g id="Signe_trait_Taureau" data-name="Signe/trait/Taureau" transform="translate(0)">
    <path id="Fill-1" d="M41.836,70a.708.708,0,0,1-.646-1c3.331-7.409,3.884-8.951,3.917-9.21-.067-.372-1.169-1.814-3.275-4.284a67.193,67.193,0,0,1-14.077,1.616V68.551a.709.709,0,0,1-1.417,0V56.413a.707.707,0,0,1,.211-.505.741.741,0,0,1,.508-.2l.29,0a64.408,64.408,0,0,0,14.379-1.637.783.783,0,0,1,.1-.047c.482-.171,2.343-1.12,3.455-1.688l.006,0c.549-.28,1.023-.522,1.26-.636a11.389,11.389,0,0,0,1.942-1.362.709.709,0,0,1,1.056.117l2.36,3.362c.224.321.568.738.933,1.18.532.643.92,1.127,1.216,1.552C61.2,46.091,62.7,41.074,62.7,38.706c0-4.649-3.5-6.542-7.2-8.546l-.208-.113q-.34-.184-.677-.368l-.03-.017c-.9-.5-1.755-.966-2.576-1.475a39.442,39.442,0,0,1-5.37-4.627c-4.026-3.853-8.272-7.418-12.05-7.418-4.17,0-8.209,5.939-10.15,8.794l0,0c-.117.173-.242.357-.359.526a9.687,9.687,0,0,1,.8,3.287c.265,7.685-5.419,8.914-10.767,9.463a20.724,20.724,0,0,0-2.653.706,7.741,7.741,0,0,1,1.59,2.446A27.8,27.8,0,0,1,14.026,45l.126.547c.638,2.787,1.36,5.945,2.848,8.008a15.657,15.657,0,0,1,2.96,8.665v6.332a.709.709,0,0,1-1.417,0V62.219a14.382,14.382,0,0,0-2.693-7.837c-1.654-2.293-2.411-5.6-3.079-8.516v0l-.125-.545,0-.01a27.193,27.193,0,0,0-.917-3.41A6.522,6.522,0,0,0,9.963,39.46c-.208.118-.417.248-.6.362-.2.126-.433.269-.654.392l0,0A8.041,8.041,0,0,1,4.945,41.6,3.8,3.8,0,0,1,2.1,40.258c-4.091-4.417-1.264-7.469.608-9.489l.025-.027c.387-.419.753-.815,1.074-1.213A13.3,13.3,0,0,0,5.6,25.945c.73-1.906,1.485-3.876,3.3-4.655a13.871,13.871,0,0,1,3.453-.812,1.447,1.447,0,0,1,.184-.121,12.663,12.663,0,0,0,2.834-2.383A9.592,9.592,0,0,0,17.983,11.2C17.8,6.721,11.659,3.116,11.4,2.965A1.583,1.583,0,0,1,12.174,0a1.564,1.564,0,0,1,.348.039c.569.129,13.932,3.271,13.932,12.519a18.85,18.85,0,0,1-1.176,6.822,13.7,13.7,0,0,1-2.5,4.159c.126.169.292.393.465.628l.018-.026c2.237-3.291,6.4-9.418,11.324-9.418,4.278,0,8.788,3.752,13.025,7.807l.013.012a38.816,38.816,0,0,0,5.129,4.438c.808.5,1.689.986,2.541,1.455.248.137.5.274.75.408l.006,0,.121.065c3.723,2.016,7.943,4.3,7.943,9.793,0,3.8-3.094,10.223-9.2,19.088l-.07.1-.007.01-.184.268a.724.724,0,0,1-.078.182C54.2,60.254,51.662,65.3,49.6,69.2a.709.709,0,1,1-1.252-.664c2.918-5.512,4.781-9.569,4.862-10.588a.78.78,0,0,1,.012-.082,14.892,14.892,0,0,0-1.459-1.958l-.013-.016c-.364-.44-.741-.9-1-1.269l-1.917-2.731a16.365,16.365,0,0,1-1.57,1.029l-.041.024-.009,0-.027.013c-.21.1-.632.315-1.165.588l0,0-.085.044c-1.026.523-2.006,1.02-2.707,1.355,3.3,3.894,3.3,4.29,3.3,4.837,0,.4,0,.8-4.04,9.793A.709.709,0,0,1,41.836,70ZM12.827,21.842h0c-.02,0-.047.01-.075.013a13.182,13.182,0,0,0-3.292.737c-1.268.543-1.855,2.078-2.536,3.854l0,.007A14.346,14.346,0,0,1,4.908,30.42c-.364.45-.777.9-1.141,1.289-1.882,2.031-3.827,4.132-.628,7.585a2.382,2.382,0,0,0,1.806.886,7.029,7.029,0,0,0,3.064-1.2l.006,0c.187-.1.369-.218.563-.338l.036-.022a12.244,12.244,0,0,1,1.1-.632A.772.772,0,0,1,9.8,37.95l.016-.005.016-.005.227-.071a30.448,30.448,0,0,1,3.9-1.064c5.132-.527,9.719-1.536,9.5-8a8.809,8.809,0,0,0-.8-3.044c-.094-.123-.265-.355-.462-.624l-.006-.008c-.268-.364-.673-.914-.82-1.1l-.474-.331-.026-.018a28.673,28.673,0,0,0-2.694-1.763,12.2,12.2,0,0,0-2.426-.134c-.9,0-1.908.023-2.842.065h-.079Zm2.894-1.483a11.374,11.374,0,0,1,2.945.224,21.768,21.768,0,0,1,3.042,1.95l.043.03c1.5-1.709,3.288-4.832,3.288-10.005,0-8.131-12.307-11.018-12.831-11.137a.174.174,0,0,0-.037,0,.164.164,0,0,0-.155.106.169.169,0,0,0,.074.2c.289.163,7.086,4.05,7.31,9.416a10.286,10.286,0,0,1-1.451,5.706,13.905,13.905,0,0,1-3.012,3.516C15.244,20.361,15.493,20.359,15.721,20.359ZM29.858,51.692c-6.671,0-11.431-3.8-13.4-10.706a.708.708,0,0,1,.681-.9.712.712,0,0,1,.682.514c1.809,6.331,5.972,9.678,12.041,9.678a20.345,20.345,0,0,0,4.206-.473.7.7,0,0,1,.149-.016.712.712,0,0,1,.691.562.708.708,0,0,1-.546.84A21.757,21.757,0,0,1,29.858,51.692Zm6.4-.981a.709.709,0,1,1,0-1.418.56.56,0,0,0,.2-.041L39.3,48.118a.709.709,0,0,1,.526,1.317l-2.845,1.136A1.982,1.982,0,0,1,36.257,50.711ZM10.276,29.168a.709.709,0,0,1-.454-1.254l2.834-2.363a.709.709,0,0,1,1,.091.708.708,0,0,1-.091,1L10.73,29A.711.711,0,0,1,10.276,29.168Zm-.128-8.574a.709.709,0,0,1,0-1.418.175.175,0,0,0,.073-.016c.183-.091,4.478-2.267,4.478-6.6a6.659,6.659,0,0,0-3.4-6.031.709.709,0,0,1,.309-1.347.7.7,0,0,1,.308.071,8.1,8.1,0,0,1,4.2,7.306c0,5.222-5.053,7.767-5.268,7.873A1.585,1.585,0,0,1,10.148,20.594Z" transform="translate(0 0)" fill="url(#linear-gradient)"/>
  </g>
</svg>
