<?xml version="1.0" encoding="UTF-8"?>
<svg width="81px" height="99px" viewBox="0 0 81 99" version="1.1" xmlns="http://www.w3.org/2000/svg" xmlns:xlink="http://www.w3.org/1999/xlink">
    <title>signs-light/virgo</title>
    <defs>
        <linearGradient x1="100%" y1="52.3727251%" x2="0%" y2="52.3727251%" id="linearGradient-1">
            <stop stop-color="#E7007D" offset="0%"></stop>
            <stop stop-color="#EF2389" offset="25.3807957%"></stop>
            <stop stop-color="#F761AC" offset="63.2672991%"></stop>
            <stop stop-color="#FF93C9" offset="100%"></stop>
        </linearGradient>
    </defs>
    <g id="Assets" stroke="none" stroke-width="1" fill="none" fill-rule="evenodd">
        <g id="signs-light/virgo" transform="translate(0.014897, 0.000000)" fill="url(#linearGradient-1)">
            <path d="M48.7176268,0 C56.6205071,0 61.9302656,7.71625168 61.9302656,19.2013018 C61.9302656,27.9329939 55.3428313,35.2320565 53.4115754,37.1840179 L53.237028,37.3586321 C53.462547,38.4817027 53.6276962,39.6831904 53.797009,40.9058167 C54.1855956,43.7192892 54.5873664,46.6289079 55.7212066,48.85732 C56.7627576,50.9043496 59.0859504,53.2868685 64.2409682,53.0741192 C64.3582381,53.0686641 64.4470579,53.0652547 64.504652,53.0652547 C64.5726545,53.0652547 64.7593149,53.0304784 64.8953203,53.0052485 C65.5288553,52.8886455 67.4530529,52.5326997 67.910336,54.5224507 C68.1969187,55.7675793 67.6688572,56.8967869 66.5974684,57.3318318 C66.5926111,57.3345594 64.7398856,58.0860006 62.1537029,58.0860006 C56.2437169,58.0860006 52.0428181,55.2684368 49.6668884,49.7110445 C49.1228672,48.4386404 48.7030549,45.3755967 48.2971207,42.4134725 C48.2596498,42.1401204 48.2207397,41.8561963 48.1810946,41.5702946 L48.1010333,40.9984004 C47.9532231,39.9544303 47.8018462,38.9608999 47.6816272,38.4414712 L45.6637524,48.8620932 L56.7197355,83.5804525 C56.9438667,84.2862073 56.8023102,85.1787995 56.3748649,85.7515859 C55.8662328,86.430747 55.1834306,86.8187416 54.4999345,86.8187416 L46.1161783,86.8187416 L46.1161783,97.9771671 C46.1161783,98.5424527 45.6505682,99 45.0753213,99 C44.5007682,99 44.0344643,98.5424527 44.0344643,97.9771671 L44.0344643,86.8187416 L36.0545606,86.8187416 L36.0545606,97.9771671 C36.0545606,98.5424527 35.5889506,99 35.0137036,99 C34.4391505,99 33.9728466,98.5424527 33.9728466,97.9771671 L33.9728466,86.8187416 L24.6953413,86.8187416 C24.0111512,86.8187416 23.328349,86.4300651 22.8211047,85.7529497 C22.3881082,85.1726625 22.2527968,84.3468953 22.4755402,83.6486414 L29.2693592,62.1908359 C29.0033504,62.5052479 28.7040432,62.7400789 28.4446704,62.8574667 C28.234058,62.9531775 28.0166914,63 27.8011668,63 C27.5138006,63 26.4976937,62.9871668 26.2348888,62.8198451 C25.4145445,62.2986 25.2627933,61.2897587 25.2627933,60.6140735 C25.2627933,60.4646704 25.2750159,60.3156771 25.2994858,60.173264 L25.326,58.89 L25.292349,58.8833181 C19.148804,57.5987651 11.7257816,53.589719 6.98273568,49.4549667 C6.64004449,49.4366511 6.31353508,49.2507341 6.1326975,48.9343734 C6.01121962,48.7220871 5.97515012,48.4853319 6.01358542,48.262539 C5.96197873,47.9484575 6.04542709,47.6137305 6.26938656,47.3583249 C6.54148505,47.0485247 6.94865541,46.9370315 7.3174138,47.0339075 C11.9459618,43.6243141 13.9633575,34.1298766 15.6017206,26.4218204 C16.1165978,23.9949788 16.6002494,21.7208803 17.1310865,19.7897717 C20.6873478,6.84343424 26.2281766,0 33.154733,0 C36.6152356,0 38.7566254,1.59971071 39.9709586,3.00849261 C41.7265373,1.48583531 44.516728,0 48.7176268,0 Z M3.48064855,59.063284 C4.63160447,59.4475076 7.39332029,60.4280463 8.18062619,61.2395266 C8.74453674,61.7706773 9.05034977,62.4850259 8.99106687,63.1692513 C8.94190544,63.7268366 8.65272054,64.2174133 8.17556545,64.5524563 C8.01250597,64.6672614 7.83501384,64.759478 7.64754419,64.8296809 L7.456,64.892 C11.0255026,68.948178 13.6238411,73.1665529 15.1896186,77.4443681 C17.1256245,82.6663424 17.5083494,87.6419784 16.3273484,92.2292849 C16.2087262,92.6889402 15.7476658,93 15.2373659,93 C15.1553001,93 15.0709962,92.9920749 14.9874384,92.9755643 C14.3846281,92.8533858 14.0078716,92.3230652 14.1451452,91.7894424 C15.2351277,87.5567836 14.8703081,82.9371163 13.0611311,78.0585626 C12.5059141,76.54179 11.8127868,75.0316118 10.9849612,73.5332611 C11.0295072,73.9576586 10.9611794,74.3764443 10.7816108,74.75162 C10.5288692,75.2800919 10.0779252,75.6777939 9.51191733,75.8705783 C9.25784563,75.9575335 8.98847641,76 8.71511654,76 C8.28612111,76 7.84781417,75.8948449 7.444758,75.6872309 C7.42813028,75.6791421 7.41150255,75.6697051 7.39487481,75.659594 C6.60206467,75.1931367 4.80760011,73.3212407 4.27617787,72.7597393 C4.00747377,72.4752813 3.92633044,72.0573571 4.0679987,71.6913364 C4.21033206,71.3246416 4.54953775,71.0745611 4.9372964,71.0509686 C5.98218291,70.9876059 8.516914,70.89391 9.47068057,71.3981153 C9.60456906,71.4624585 9.73334006,71.5392067 9.85541289,71.6267708 C9.22127956,70.6261347 8.52607911,69.6302484 7.77131636,68.6423448 C7.58075858,69.0302079 7.27401093,69.3614877 6.87698008,69.6012038 C6.44046579,69.8642694 5.92042547,70 5.38367996,70 C5.13019662,70 4.87308171,69.9699154 4.61887205,69.9083468 C4.60216685,69.9048486 4.58618795,69.8999511 4.56948276,69.8950536 C3.58387562,69.6075005 1.18849438,68.0703859 0.478159979,67.6058233 C0.125898032,67.3763405 -0.0549539775,66.9705479 0.0147720985,66.5668541 C0.0837718612,66.1624608 0.391002384,65.8343284 0.80064308,65.7258838 C1.71114834,65.485108 3.70055324,65.0027384 5.001544,65.0000116 C4.99753708,64.8622657 5.0291763,64.7229732 5.09281214,64.5939706 C4.84033003,64.4588045 4.60210773,64.2891085 4.38796619,64.0870847 L4.353264,64.053273 C3.68163206,63.3530639 2.35065855,60.7962862 2.09039214,60.29157 C1.91471231,59.94915 1.99857594,59.5514017 2.30294304,59.2821378 C2.60731015,59.0134886 3.07145193,58.9280373 3.48064855,59.063284 Z M43.5544606,49.0005908 L35.5413191,49.0005151 C35.5408823,49.1005654 35.5254675,49.2004819 35.4952734,49.2971381 L32.1922872,59.8445914 L32.1902055,59.8507284 L24.4628831,84.2575679 C24.4358209,84.3434859 24.4601075,84.4894101 24.4989662,84.5412336 C24.609991,84.6898853 24.7237913,84.7683025 24.7584865,84.7819403 L33.9291306,84.7737576 L54.4999345,84.7730757 C54.4714843,84.7683025 54.5852847,84.6898853 54.6970033,84.5398698 C54.7379437,84.4750904 54.7601487,84.2759789 54.7330864,84.1907428 L43.5986921,49.2282674 C43.5752895,49.1539197 43.5604772,49.0775344 43.5544606,49.0005908 Z M7.10421132,77.0012167 C8.1951028,77.0637797 10.8318284,77.2727401 11.7500359,77.8702167 C12.3547768,78.2274514 12.8055584,78.8280561 12.949115,79.494352 C13.0760274,80.0830698 12.951889,80.6605263 12.5995858,81.1203643 C12.1515784,81.699072 11.4344888,82 10.6702406,82 C10.120287,82 9.54536711,81.8442181 9.02939554,81.5226443 C9.00789672,81.5101317 8.98709142,81.4963679 8.96767313,81.4813528 C8.37125439,81.0484169 7.1712044,79.6557145 6.54566933,78.9096633 L6.34032513,78.6633434 C6.2823879,78.5934324 6.23572854,78.5367629 6.2026481,78.4964723 C5.96200008,78.2024262 5.93217913,77.8095306 6.12566847,77.489208 C6.31915781,77.1688855 6.70336245,76.9830734 7.10421132,77.0012167 Z M9.37823115,79.1252304 C9.75272664,79.5375205 10.0696608,79.8609712 10.2430383,79.9973585 C10.5148943,80.1531404 10.8089426,80.1556429 10.8907769,80.0499114 C10.9178237,80.0142505 10.9254523,79.937298 10.9074211,79.8540893 C10.8699715,79.682041 10.7444462,79.518126 10.5703751,79.4155227 C10.4004652,79.3204269 9.95731214,79.2178236 9.37823115,79.1252304 Z M19.9327786,71.0350848 C20.3367989,71.1418513 20.6358157,71.4729626 20.6928374,71.875702 C20.8708568,73.1447366 21.231763,76.1869058 20.7714163,77.2984936 C20.4883934,78.0499134 19.9265202,78.6215871 19.2262646,78.868907 C18.9780111,78.9567528 18.7200223,79 18.4627288,79 C18.0705302,79 17.6818084,78.8993151 17.3348099,78.7006484 C16.2041093,78.0634281 15.7096886,76.6038356 16.165863,75.2334405 C16.4838382,74.4077607 17.785111,72.7085117 18.5057903,71.8014699 L18.7457752,71.5017174 C18.7802186,71.4590323 18.8116305,71.4202551 18.839629,71.3857925 C19.0997041,71.0661687 19.5301491,70.9296698 19.9327786,71.0350848 Z M18.8820477,74.725286 C18.498889,75.26047 18.2123893,75.7003749 18.1352012,75.9003932 C17.9898651,76.3409739 18.1428505,76.8126385 18.3869316,76.9498131 C18.4272641,76.9727882 18.4620335,76.9815728 18.5134922,76.9640036 C18.6059787,76.9308925 18.7346254,76.8160172 18.8166812,76.5916724 C18.8243305,76.5700488 18.8326752,76.5497767 18.8417152,76.5295045 C18.9279433,76.2842119 18.9314202,75.5807694 18.8820477,74.725286 Z M7.39221437,73.0462196 C7.82653067,73.4594253 8.19034539,73.7796092 8.37391552,73.8968976 C8.57943427,73.9946379 8.76566483,73.9905935 8.87540784,73.9541937 C8.95921161,73.9252086 8.97849977,73.8854384 8.98648108,73.8685866 C9.01109012,73.8173572 9.00643435,73.7297279 8.97517422,73.6380542 C8.91265396,73.4580772 8.76499972,73.2963001 8.58076448,73.2079967 C8.40584077,73.1284563 7.96487338,73.0738566 7.39221437,73.0462196 Z M16.2519802,63.0097393 C16.6675985,63.0661222 17.0083497,63.3547489 17.1189014,63.7433881 C17.4603522,64.9502504 18.2174215,67.8586677 17.934745,68.9856542 C17.7605211,69.7609189 17.2861284,70.399925 16.6312144,70.7395648 C16.2974603,70.9120695 15.9301208,71 15.5606822,71 C15.2822039,71 15.0023262,70.9503294 14.7357426,70.8496456 C13.5007822,70.3858293 12.7912922,69.0205579 13.0508788,67.6049447 C13.2817779,66.5853541 14.7595322,64.1944512 15.2080363,63.4849665 C15.4256412,63.1406282 15.8328633,62.9540276 16.2519802,63.0097393 Z M15.6922248,66.7524891 C15.3822602,67.3230302 15.156259,67.7888603 15.110079,67.9935839 C15.0296142,68.4372635 15.2493182,68.8802719 15.5026075,68.9755858 C15.5508865,68.9930377 15.5872706,68.991024 15.632051,68.9688736 C15.7209122,68.9225591 15.833563,68.7896565 15.883941,68.5540566 C15.8881391,68.537276 15.8923373,68.5211666 15.8965355,68.504386 C15.9462137,68.2526767 15.8559532,67.576082 15.6922248,66.7524891 Z M3.87875881,67.2119246 C4.46344101,67.5491522 4.9493446,67.8045218 5.17740698,67.8786839 C5.4192693,67.9325563 5.6161002,67.8849807 5.72141563,67.8213132 C5.79985747,67.7744371 5.81002585,67.7303597 5.81365742,67.712169 C5.85287834,67.5344598 5.60447919,67.1979317 5.19701743,67.1076778 C4.99437603,67.0670986 4.50411456,67.1118757 3.87875881,67.2119246 Z M12.0789735,58.5479036 C12.6615315,59.6465841 14.0040378,62.3084334 13.9971355,63.4422717 C14.0081792,64.2353501 13.7030956,64.9621695 13.1591907,65.4408561 C12.7429792,65.8059561 12.2266837,66 11.6807082,66 C11.5826949,66 11.4833011,65.9932389 11.3832171,65.9803928 C10.0869565,65.8120411 9.06333863,64.6045067 8.99845658,63.1711512 C8.98672259,62.1197985 9.90197365,59.4687669 10.1822089,58.6804213 C10.3188754,58.2984186 10.6743462,58.0320308 11.0864162,58.002958 C11.4984863,57.9718569 11.8884688,58.1882125 12.0789735,58.5479036 Z M11.3562979,61.7891801 C11.1809783,62.4125546 11.0663994,62.9122007 11.0684701,63.115034 C11.0884869,63.5490973 11.3935706,63.9358328 11.6524086,63.9696384 C11.6924422,63.9750473 11.7310953,63.9709906 11.7766508,63.930424 C11.8525766,63.8641651 11.9312634,63.7073073 11.9264317,63.4652595 L11.9264317,63.4219884 C11.9160782,63.1718273 11.6855398,62.5437201 11.3562979,61.7891801 Z M5.30034456,61.7792839 C5.60760352,62.2981395 5.87076178,62.7075682 6.01824607,62.870479 C6.32550503,63.1483495 6.69710764,63.1981449 6.79398458,63.1305215 C6.80338309,63.1237592 6.82290307,63.0924066 6.82796381,63.0327751 C6.84025417,62.8919955 6.77084978,62.6626909 6.53805593,62.4438371 C6.38695683,62.2956805 5.92498395,62.0540806 5.30034456,61.7792839 Z M39.3360358,9.25936564 C39.2236232,9.26550263 39.1202314,9.34732927 39.0987204,9.45029445 C39.086924,9.50689121 37.8156906,15.4768261 32.8591297,15.985515 C32.7120218,16.0011985 32.5850373,16.1300754 32.5850373,16.2248579 L32.5850373,20.6789544 C32.5850373,22.9612357 34.4544164,24.7689224 36.2037501,25.7010642 C36.5395999,25.879719 36.7484653,26.2247546 36.7484653,26.6004753 L36.7484653,31.9267073 C36.7484653,32.4913111 36.2828553,32.9495402 35.7076083,32.9495402 L33.154733,32.9495402 C33.032849,32.9495402 32.915887,32.9289686 32.807233,32.8911724 L32.9375394,32.8847769 C31.6537626,32.8847769 30.2699143,34.1030973 29.4620805,34.9680409 C29.467945,35.1560879 29.4201027,35.3488454 29.3132768,35.5229879 C28.2613173,37.2399835 27.7277046,39.7602438 27.7277046,43.0142163 L27.3807523,60.24486 C27.3768035,60.4434899 27.3155345,60.6277145 27.2128053,60.7826539 C27.3853409,61.0758373 27.6512218,61.1687792 27.9824479,61.1687792 C28.2219274,61.1687792 28.2928754,61.0537048 28.3097196,60.8709965 C28.1453278,60.6741427 28.0558764,60.41725 28.0781265,60.1439405 L29.4659358,43.0967249 C29.4687114,43.0674037 29.471487,43.0387643 29.4770383,43.0094431 C30.3867473,37.6463891 31.2222086,36.2519269 31.8494984,35.6361814 C32.1277541,35.3620622 32.5378518,35.2665978 32.9111725,35.3872921 C33.2851871,35.5086683 33.5571978,35.8264284 33.6147919,36.208286 L35.249,47 L43.904,47 L46.1349137,35.4861659 C46.1952834,35.1711334 46.4027609,34.9024693 46.6955887,34.7606364 C46.9870287,34.6174398 47.3298175,34.6181217 47.6219514,34.7620002 C48.5941119,35.2393222 48.8355906,35.7957434 49.2366676,36.7183387 C49.3109154,36.8894927 49.3948779,37.0845129 49.4961879,37.3074904 C49.7723619,37.9191445 49.982615,39.3852051 50.3600992,42.140717 C50.4277549,42.6337749 50.4985671,43.1500584 50.5719287,43.6696697 L50.6611474,44.2935271 C50.9473027,46.2660685 51.2667657,48.1717334 51.5862288,48.9186899 C53.6353292,53.7110032 57.0916684,56.0403347 62.1537029,56.0403347 C64.2583158,56.0403347 65.7897634,55.4464098 65.8043354,55.4409546 C65.9410346,55.3850398 65.9056454,55.0843269 65.879971,54.973179 C65.8765015,54.9595413 65.8737258,54.9472673 65.8702564,54.9363571 C65.7037192,54.9397665 65.4414232,54.9868168 65.2804374,55.0154561 C65.02855,55.0625065 64.7669479,55.1109205 64.504652,55.1109205 C64.467181,55.1109205 64.409587,55.11433 64.3325636,55.1177394 C59.445393,55.3291249 55.7212066,53.4321108 53.8587665,49.7724145 C52.5701856,47.2398802 52.1455159,44.1597892 51.7340305,41.1806178 C51.2621753,37.7609464 50.8159945,34.53084 49.1173159,33.4186796 C48.5004347,33.0150015 46.9599664,32.9011261 46.0627476,32.9481765 L43.3405596,32.9495402 C42.7660065,32.9495402 42.2997026,32.4913111 42.2997026,31.9267073 L42.2997026,26.8193615 C42.2997026,26.4340944 42.5196704,26.0822399 42.8693983,25.9076764 C44.6853469,25.0007645 45.769226,23.0464717 45.769226,20.6789544 L45.769226,16.2766815 C45.769226,16.2200847 45.7608991,16.0359748 45.6547316,16.0359748 C41.8077242,16.0359748 39.807891,10.1035438 39.5920867,9.42779213 C39.5608609,9.33028205 39.4602447,9.26413886 39.3360358,9.25936564 Z M32.1312237,40.3064366 C31.9445633,41.100155 31.7447188,42.0841203 31.5372412,43.3033371 L30.2528237,59.081558 L33.4364583,48.9166443 L32.1312237,40.3064366 Z M48.7176268,2.04566587 C44.4743999,2.04566587 41.9694039,3.78925509 40.6142081,5.25258808 C40.3963221,5.48852154 40.0792076,5.61057961 39.7537664,5.58262217 C39.4297129,5.55466474 39.1382729,5.37941936 38.9647967,5.11007335 C38.0668841,3.71151979 36.3300408,2.04566587 33.154733,2.04566587 C25.7216262,2.04566587 21.4312137,11.9848745 19.1406343,20.3230086 C18.6257571,22.1975204 18.1483507,24.4436615 17.6431881,26.8214072 C15.9774507,34.6609982 13.9423956,44.2373497 8.98469074,48.3419942 C13.3623528,51.9520174 19.9492173,55.4650182 25.3710521,56.6862845 L25.6466846,42.9944416 C25.6460859,39.8794654 26.1180631,37.3116095 27.0501399,35.35524 C26.9476382,35.0830371 26.9863681,34.7725759 27.18478,34.5191936 C27.2856212,34.390659 29.7028012,31.1724056 32.6986395,31.0066338 C32.8358429,30.9410712 32.9908381,30.9038744 33.154733,30.9038744 L34.6667513,30.9038744 L34.6667513,27.1875814 C32.5635262,25.8960843 30.5033233,23.6056204 30.5033233,20.6789544 L30.5033233,16.2248579 C30.5033233,15.0738299 31.4428702,14.0748631 32.6419375,13.9507594 C36.0129263,13.6050418 37.0503138,9.08002893 37.0607224,9.03434239 C37.2716694,8.02037401 38.1654186,7.26961463 39.2333378,7.21642732 C40.2901547,7.16528567 41.2623151,7.82330819 41.5787357,8.81613803 C42.216434,10.8167993 43.8852747,13.9903089 45.6547316,13.9903089 C46.9065357,13.9903089 47.85094,14.9735923 47.85094,16.2766815 L47.85094,20.6789544 C47.85094,23.540841 46.5373784,26.0604195 44.3814166,27.4112408 L44.3814166,30.9038744 L46.0051535,30.9038744 C46.2376116,30.8895547 48.8342029,30.7756793 50.2712794,31.7166856 C51.3995684,32.455171 52.1205354,33.618473 52.6201467,35.03271 C55.7107981,31.6928195 59.8485516,25.5599132 59.8485516,19.2013018 C59.8485516,8.93955987 55.3749482,2.04566587 48.7176268,2.04566587 Z M79.6823068,19.2821378 C79.985992,19.5514017 80.07059,19.94915 79.8941634,20.29157 C79.6345848,20.7962862 78.3034311,23.3530639 77.6317083,24.053273 C77.6201393,24.0655682 77.6085703,24.0766338 77.5970015,24.0883142 C76.9846091,24.6654453 76.1735046,24.9788103 75.3943644,24.9989624 L75.7411071,24.6095662 C75.5581304,24.8119263 75.3777031,25.0147079 75.1998342,25.2178964 L75.3184343,25.1913125 L75.3184343,25.1913125 C76.4051788,24.9425625 79.0769096,25.5219375 80.1737634,25.7831875 C80.5817439,25.8800625 80.8864656,26.1731875 80.9557862,26.5338125 C81.0243847,26.8950625 80.8445844,27.2575625 80.4950932,27.4625625 C79.7881676,27.8775625 77.4074389,29.2513125 76.4275636,29.5081875 L76.3777394,29.5200625 L76.3777394,29.5200625 C76.1257302,29.5750625 75.8701106,29.6019375 75.6181014,29.6019375 C75.0844773,29.6019375 74.5674613,29.4806875 74.1327635,29.2450625 C73.5774767,28.9438125 73.199824,28.4806875 73.0698479,27.9406875 L73.0511388,27.8562113 C70.7812053,30.8647758 69.0630533,33.9463347 67.9246638,37.0552605 C66.1147286,41.9377767 65.7499065,46.5574441 66.8398963,50.7894424 C66.9771708,51.3230652 66.6004119,51.8533858 65.9975975,51.9755643 C65.9140391,51.9920749 65.8297346,52 65.7476683,52 C65.236619,52 64.7763016,51.6889402 64.6576784,51.2292849 C63.4766696,46.6426388 63.859397,41.6670028 65.796908,36.4404056 C67.3363143,32.2365333 69.8737865,28.0883565 73.3438051,24.103036 C73.1451106,23.8324819 73.0238503,23.5142751 72.9940008,23.1710956 C72.9339867,22.4862554 73.2398411,21.7719068 73.8341966,21.210633 C74.5912406,20.4298906 77.3533302,19.4481224 78.5044418,19.063284 C78.9136939,18.9280373 79.3778985,19.0134886 79.6823068,19.2821378 Z M75.8592498,36.4904647 C76.0527404,36.8100725 76.0229193,37.2028587 75.7822697,37.4968228 C75.6168664,37.6985322 75.1119876,38.3092897 74.5552687,38.9373254 L74.2173175,39.313086 C73.7645578,39.8085069 73.3154376,40.2648394 73.0172263,40.4814973 C72.9971144,40.4958827 72.9763089,40.5096428 72.95481,40.5234028 C72.4381415,40.8442615 71.8632178,41 71.3132606,41 C70.5497009,41 69.8339936,40.6997813 69.3880637,40.1237366 C69.0329841,39.660274 68.9088449,39.0829784 69.0357582,38.4950501 C69.1793157,37.8283143 69.6301002,37.2278769 70.2716014,36.8475998 C71.1530587,36.2734315 73.7898018,36.0645293 74.8807005,36.0019838 C75.2753104,35.9782165 75.6657592,36.1696059 75.8592498,36.4904647 Z M72.6087461,38.1235294 C72.034516,38.213595 71.5996821,38.3117915 71.4429479,38.3981044 C71.2404415,38.5188174 71.1149153,38.6826868 71.0774656,38.8540616 C71.0594342,38.9378727 71.0670628,39.0148037 71.0968839,39.053582 C71.1759447,39.1555312 71.4706885,39.1530294 71.7418527,38.997291 C71.9159249,38.8615671 72.2328612,38.5363301 72.6087461,38.1235294 Z M62.1484512,30.3854598 C62.6811652,31.0408955 64.4485223,33.2531596 64.8099322,34.1876621 C65.2820631,35.6025922 64.7883451,37.0621189 63.6511921,37.702689 C63.3071912,37.8993197 62.9186233,38 62.52727,38 C62.2696175,38 62.0105722,37.9560791 61.761276,37.8689129 C61.0600433,37.6209285 60.4973859,37.0492805 60.2139681,36.2972188 C59.752979,35.1863568 60.1143889,32.1443247 60.2933529,30.876023 C60.3497579,30.472626 60.6498883,30.1422054 61.0537761,30.0354437 C61.4569675,29.9293577 61.8880132,30.0658505 62.1484512,30.3854598 Z M62.1045806,33.7187216 C62.0537465,34.5802478 62.0579246,35.2843343 62.1477548,35.5323187 C62.1582002,35.5552927 62.1630747,35.5667797 62.1721273,35.5911052 C62.2542976,35.8161156 62.3824275,35.93031 62.4750432,35.9634196 C62.5286627,35.980988 62.5634806,35.9735552 62.5976023,35.953284 C62.8462021,35.812737 62.9994008,35.3397422 62.8385421,34.8559362 C62.76821,34.6761982 62.4854886,34.2478 62.1045806,33.7187216 Z M77.0476306,30.0527091 C77.435386,30.0762933 77.7745888,30.325612 77.916921,30.6921778 C78.058588,31.0587436 77.9774454,31.475847 77.7087436,31.760205 C77.1773258,32.3221828 75.3828763,34.1934204 74.5894077,34.6597137 C74.5734452,34.6691474 74.5568176,34.6779072 74.54019,34.6866671 C74.1371373,34.894208 73.698834,35 73.2698421,35 C72.9964846,35 72.7271177,34.9562008 72.4730481,34.86995 C71.9070449,34.6765596 71.4561047,34.2789974 71.2027002,33.7513852 C70.9439749,33.2102963 70.9167057,32.5768921 71.1275435,31.9690936 C71.3656506,31.2811089 71.8831012,30.7029591 72.5475397,30.3828879 C73.4673779,29.8957057 76.0020877,29.9873472 77.0476306,30.0527091 Z M74.5947285,32.0452369 C74.0267301,32.0708426 73.5930825,32.1227279 73.4307972,32.1955019 C73.2199594,32.2972509 73.0723064,32.4582973 73.0097867,32.6388849 C72.9785268,32.7298525 72.9738711,32.8174509 72.9984799,32.8693362 C73.0064612,32.8855082 73.025084,32.9259382 73.1095522,32.9542393 C73.2192943,32.9906263 73.4061884,32.9939955 73.6117054,32.8969634 C73.7959392,32.7797162 74.1604159,32.4582973 74.5947285,32.0452369 Z M65.7800286,22.4849665 C66.229009,23.1944512 67.7083328,25.5853541 67.931072,26.5646712 C68.1993395,28.0198867 67.4897963,29.3844868 66.2528239,29.8496456 C65.9859572,29.9503294 65.7057822,30 65.4270081,30 C65.0578776,30 64.6894475,29.9120695 64.3560393,29.7395648 C63.6997294,29.3992538 63.2248328,28.7609189 63.0504239,27.9856542 C62.7674471,26.8586677 63.5253205,23.9502504 63.8671339,22.7427168 C63.9778031,22.3540777 64.3189161,22.0661222 64.7349759,22.0097393 C65.1517362,21.9540276 65.562893,22.1406282 65.7800286,22.4849665 Z M65.2960263,25.749133 C65.1314236,26.5767532 65.0403666,27.2573752 65.0914986,27.5070709 C65.0964016,27.525194 65.0992034,27.5345911 65.1027055,27.5533854 C65.1538375,27.7889853 65.266608,27.9218878 65.3555635,27.9682024 C65.4003915,27.9916952 65.4375147,27.9937089 65.4851444,27.9749146 C65.7380024,27.8802719 65.9586401,27.4372635 65.8696846,26.9533104 C65.8269579,26.7673811 65.6042188,26.3129619 65.2960263,25.749133 Z M76.0094738,27.0013125 C75.9343765,27.0013125 75.873721,27.0050625 75.8289515,27.0131875 C75.397142,27.0988125 75.1516316,27.3988125 75.1891803,27.5531875 C75.194957,27.5744375 75.2036221,27.6131875 75.2823298,27.6556875 C75.3863107,27.7125625 75.582719,27.7525625 75.8224527,27.7069375 C76.0499108,27.6400625 76.5337107,27.4119375 77.1157148,27.1100625 C76.6434683,27.0406875 76.2520959,27.0013125 76.0094738,27.0013125 Z M69.8982926,17.0029585 C70.3103067,17.0320362 70.6650393,17.298469 70.8016871,17.6805364 C71.0825745,18.4690152 71.9977014,21.1204949 71.9866592,22.1382141 C71.9210958,23.6056232 70.8969266,24.8133618 69.6042926,24.9817419 C69.5042221,24.9945902 69.4041517,25 69.3054616,25 C68.7574896,25 68.2412641,24.8065995 67.8251092,24.4407616 C67.2812781,23.9626703 66.9769259,23.235728 66.9879682,22.4431918 C66.9803767,21.3084856 68.3233909,18.6468625 68.9051798,17.5479962 C69.0956587,17.1882443 69.4924898,16.9718522 69.8982926,17.0029585 Z M76.6859456,21.7762101 C76.0670062,22.0467036 75.6136475,22.2809263 75.475543,22.4155582 C75.2465137,22.6323372 75.1647402,22.834996 75.1561101,22.9769966 L75.1565451,23.0336072 C75.2559671,23.0571648 75.3527883,23.0932029 75.4439905,23.1420228 C75.5971432,23.1121577 75.7924873,23.028094 75.9665009,22.8710938 C76.1140051,22.7081829 76.3786451,22.2975247 76.6859456,21.7762101 Z M69.6291376,20.7871158 C69.2985601,21.5465169 69.0666728,22.176759 69.0577009,22.4256099 L68.0231796,22.4452205 L69.0577009,22.464831 C69.0535601,22.7075959 69.1322361,22.8644802 69.2074615,22.9307503 C69.2474897,22.965914 69.2840672,22.9740287 69.3358278,22.9706476 C69.5911799,22.9368363 69.8962222,22.5493592 69.9169509,22.0820874 C69.9183067,21.8954492 69.8037433,21.4045096 69.6291376,20.7871158 Z M39.6797931,16.9814437 C40.0166019,17.3000577 40.0967007,17.8270732 39.8452431,18.2405366 C39.559645,18.710776 38.9516822,18.8570579 38.4894729,18.56583 C38.4218485,18.523081 38.3332146,18.4469343 38.2774081,18.3888223 C38.0916052,18.1951157 37.797472,17.9686794 37.4646025,18.0114284 C37.1816306,18.0381466 36.9899188,18.1750771 36.8717404,18.4208841 C36.8572963,18.45161 36.833004,18.4976988 36.8152772,18.5264208 C36.6288178,18.8316756 36.3071096,19 35.9775228,19 C35.8002551,19 35.6210177,18.9519073 35.459507,18.8490424 C35.0183073,18.5705057 34.8686145,17.9960655 35.1049715,17.5351774 C35.5297576,16.658822 36.3143317,16.1070922 37.2610728,16.0182544 C38.1158975,15.9140536 38.9825399,16.2587177 39.6797931,16.9814437 Z M44.6788736,16.9814437 C45.0156823,17.3000577 45.0957812,17.8270732 44.8443235,18.2405366 C44.5587255,18.710776 43.9514192,18.8570579 43.4885533,18.56583 C43.4209289,18.523081 43.332295,18.4469343 43.2764885,18.3888223 C43.0906856,18.1951157 42.7952393,17.9686794 42.4636829,18.0114284 C42.1807111,18.0381466 41.9889992,18.1750771 41.8708208,18.4208841 C41.8563767,18.45161 41.8320844,18.4976988 41.8143577,18.5264208 C41.6278983,18.8316756 41.30619,19 40.9766033,19 C40.7993356,19 40.6200982,18.9519073 40.4585875,18.8490424 C40.0173877,18.5705057 39.867695,17.9960655 40.104052,17.5351774 C40.528838,16.658822 41.3134121,16.1070922 42.2601533,16.0182544 C43.1149779,15.9140536 43.9816203,16.2587177 44.6788736,16.9814437 Z" id="Combined-Shape"></path>
        </g>
    </g>
</svg>